<svg width="34" height="33" viewBox="0 0 34 33" fill="none" xmlns="http://www.w3.org/2000/svg">
<g clip-path="url(#clip0_113_447)">
<path d="M17 0C26.3888 0 34 7.3873 34 16.5C34 24.7356 27.7834 31.5617 19.6562 32.7996V21.2695H23.6174L24.3711 16.5H19.6562V13.4048C19.6562 13.0545 19.7037 12.7065 19.8141 12.3849C20.0633 11.6584 20.6333 11.0664 21.7013 10.8853C21.9214 10.848 22.1627 10.8281 22.4267 10.8281H24.5703V6.76758C24.5703 6.76758 22.6249 6.44531 20.7649 6.44531C16.8817 6.44531 14.3438 8.72953 14.3438 12.8648V16.5H10.0273V21.2695H14.3438V32.7996C6.21669 31.5617 0 24.7356 0 16.5C0 7.3873 7.61115 0 17 0Z" fill="black"/>
</g>
<defs>
<clipPath id="clip0_113_447">
<rect width="34" height="33" fill="white"/>
</clipPath>
</defs>
</svg>
