<svg width="23" height="19" viewBox="0 0 23 19" fill="none" xmlns="http://www.w3.org/2000/svg">
<path d="M11.501 18.8646C11.2607 18.8644 11.0304 18.7688 10.8606 18.5988L2.68018 10.3942C1.57318 9.26483 0.953125 7.74644 0.953125 6.16502C0.953125 4.5836 1.57318 3.06522 2.68018 1.93585C3.80186 0.814283 5.32312 0.184202 6.90935 0.184202C8.49557 0.184202 10.0168 0.814283 11.1385 1.93585L11.501 2.25002L11.8393 1.91169C12.3939 1.35102 13.0546 0.906298 13.7827 0.603423C14.5108 0.300548 15.292 0.145572 16.0806 0.147521C16.8684 0.143991 17.649 0.297065 18.3771 0.597847C19.1052 0.898628 19.7662 1.34112 20.3218 1.8996C21.4288 3.02897 22.0489 4.54735 22.0489 6.12877C22.0489 7.71019 21.4288 9.22858 20.3218 10.3579L12.1414 18.5625C12.0604 18.6533 11.962 18.7268 11.8519 18.7787C11.7419 18.8306 11.6226 18.8598 11.501 18.8646ZM6.92143 1.94794C6.37264 1.94394 5.82849 2.04866 5.32038 2.25605C4.81228 2.46344 4.35027 2.7694 3.96101 3.15627C3.17665 3.94429 2.73631 5.01088 2.73631 6.12273C2.73631 7.23457 3.17665 8.30117 3.96101 9.08919L11.501 16.6775L19.0289 9.11335C19.4188 8.72395 19.728 8.26152 19.939 7.75251C20.15 7.24351 20.2586 6.6979 20.2586 6.1469C20.2586 5.59589 20.15 5.05028 19.939 4.54128C19.728 4.03227 19.4188 3.56984 19.0289 3.18044C18.6427 2.79284 18.183 2.4863 17.6767 2.2788C17.1704 2.0713 16.6277 1.96703 16.0806 1.9721C15.5318 1.96811 14.9877 2.07283 14.4796 2.28022C13.9714 2.48761 13.5094 2.79357 13.1202 3.18044L12.1414 4.15919C11.9686 4.32322 11.7393 4.41467 11.501 4.41467C11.2627 4.41467 11.0335 4.32322 10.8606 4.15919L9.88185 3.18044C9.49459 2.7892 9.03347 2.47879 8.52528 2.26721C8.01708 2.05564 7.47191 1.94711 6.92143 1.94794Z" fill="black"/>
</svg>
