<svg width="34" height="33" viewBox="0 0 34 33" fill="none" xmlns="http://www.w3.org/2000/svg">
<g clip-path="url(#clip0_113_448)">
<path d="M13.2223 16.5C13.2223 18.525 14.9136 20.1666 17.0001 20.1666C19.0864 20.1666 20.7778 18.525 20.7778 16.5C20.7778 14.4749 19.0864 12.8333 17.0001 12.8333C14.9136 12.8333 13.2223 14.4749 13.2223 16.5Z" fill="black"/>
<path fill-rule="evenodd" clip-rule="evenodd" d="M21.5796 7.54612C20.3845 7.49319 20.0261 7.48202 17 7.48202C13.9739 7.48202 13.6154 7.49319 12.4203 7.54612C11.3153 7.59507 10.7153 7.77425 10.3159 7.92485C9.7869 8.1244 9.40936 8.36279 9.01274 8.7477C8.61616 9.13261 8.37055 9.49909 8.165 10.0125C8.00978 10.4001 7.82517 10.9825 7.77475 12.055C7.72021 13.2149 7.7087 13.5629 7.7087 16.5C7.7087 19.4371 7.72021 19.785 7.77475 20.9449C7.82517 22.0173 8.00978 22.5998 8.165 22.9874C8.37055 23.5008 8.61616 23.8673 9.01274 24.2522C9.40936 24.6371 9.7869 24.8755 10.3159 25.075C10.7153 25.2257 11.3153 25.4048 12.4203 25.4537C13.6153 25.5067 13.9736 25.5179 17 25.5179C20.0263 25.5179 20.3847 25.5067 21.5796 25.4537C22.6845 25.4048 23.2846 25.2257 23.684 25.075C24.213 24.8755 24.5905 24.6371 24.9871 24.2522C25.3837 23.8673 25.6293 23.5008 25.8349 22.9874C25.9901 22.5998 26.1747 22.0173 26.2251 20.9449C26.2796 19.785 26.2912 19.4371 26.2912 16.5C26.2912 13.5629 26.2796 13.2149 26.2251 12.055C26.1747 10.9825 25.9901 10.4001 25.8349 10.0125C25.6293 9.49909 25.3837 9.13261 24.9871 8.7477C24.5905 8.36279 24.213 8.1244 23.684 7.92485C23.2846 7.77425 22.6845 7.59507 21.5796 7.54612ZM11.1802 16.5C11.1802 13.3803 13.7858 10.8513 17.0001 10.8513C20.2142 10.8513 22.8198 13.3803 22.8198 16.5C22.8198 19.6196 20.2142 22.1486 17.0001 22.1486C13.7858 22.1486 11.1802 19.6196 11.1802 16.5ZM24.4097 10.6281C24.4097 11.3572 23.8008 11.9481 23.0497 11.9481C22.2986 11.9481 21.6897 11.3572 21.6897 10.6281C21.6897 9.89913 22.2986 9.30818 23.0497 9.30818C23.8008 9.30818 24.4097 9.89913 24.4097 10.6281Z" fill="black"/>
<path fill-rule="evenodd" clip-rule="evenodd" d="M34 16.5C34 25.6127 26.3888 33 17 33C7.61116 33 0 25.6127 0 16.5C0 7.3873 7.61116 0 17 0C26.3888 0 34 7.3873 34 16.5ZM12.3272 5.56622C13.5361 5.51268 13.922 5.5 17 5.5C20.0779 5.5 20.4638 5.51268 21.6726 5.56622C22.8789 5.61963 23.7028 5.80555 24.4236 6.0775C25.1689 6.3586 25.801 6.73475 26.4311 7.34628C27.0611 7.95776 27.4486 8.57123 27.7382 9.29456C28.0184 9.99422 28.21 10.7939 28.265 11.9647C28.3201 13.1379 28.3332 13.5125 28.3332 16.5C28.3332 19.4873 28.3201 19.8619 28.265 21.0352C28.21 22.206 28.0184 23.0056 27.7382 23.7053C27.4486 24.4286 27.0611 25.0421 26.4311 25.6537C25.801 26.2652 25.1689 26.6413 24.4236 26.9224C23.7028 27.1943 22.8789 27.3803 21.6726 27.4337C20.4638 27.4872 20.0779 27.4999 17 27.4999C13.922 27.4999 13.5361 27.4872 12.3272 27.4337C11.121 27.3803 10.2971 27.1943 9.57617 26.9224C8.83092 26.6413 8.19886 26.2652 7.56885 25.6537C6.93879 25.0421 6.55124 24.4286 6.26162 23.7053C5.98143 23.0056 5.78987 22.206 5.73484 21.0352C5.67968 19.8619 5.66667 19.4873 5.66667 16.5C5.66667 13.5125 5.67968 13.1379 5.73484 11.9647C5.78987 10.7939 5.98143 9.99422 6.26162 9.29456C6.55124 8.57123 6.93879 7.95776 7.56885 7.34628C8.19886 6.73475 8.83092 6.3586 9.57617 6.0775C10.2971 5.80555 11.121 5.61963 12.3272 5.56622Z" fill="black"/>
</g>
<defs>
<clipPath id="clip0_113_448">
<rect width="34" height="33" fill="white"/>
</clipPath>
</defs>
</svg>
