<svg width="105" height="103" viewBox="0 0 105 103" fill="none" xmlns="http://www.w3.org/2000/svg">
<path d="M32.9352 49.1889C32.9229 49.1329 32.9008 49.0783 32.8685 49.0277C32.8593 49.0133 32.8495 48.9995 32.8391 48.9863C32.7413 48.8573 32.6478 48.7277 32.5585 48.5974C32.4046 48.3731 32.1003 48.3134 31.8735 48.461C31.8706 48.4562 31.8676 48.4513 31.8647 48.4465C32.0987 48.3113 32.1834 48.0133 32.0533 47.7745C31.8967 47.487 31.759 47.1975 31.6394 46.9068C31.5361 46.6557 31.2519 46.5337 30.9996 46.6296C30.9974 46.6232 30.9952 46.6168 30.993 46.6104C31.2503 46.5296 31.3981 46.2581 31.324 45.997C31.2354 45.6848 31.1664 45.3721 31.1161 45.06C31.0729 44.7922 30.8244 44.6086 30.5571 44.6439C30.5565 44.6382 30.556 44.6325 30.5554 44.6268C30.8243 44.6077 31.0308 44.3778 31.0192 44.1067C31.0055 43.7847 31.0108 43.4642 31.0343 43.1466C31.0543 42.8759 30.8549 42.6397 30.5866 42.6123C30.5874 42.6063 30.5882 42.6002 30.589 42.5942C30.8553 42.6374 31.1092 42.4608 31.16 42.1941C31.2201 41.8783 31.298 41.5667 31.3926 41.2606C31.4728 41.001 31.3311 40.7259 31.0753 40.6394C31.0775 40.6336 31.0796 40.6278 31.0818 40.622C31.3323 40.7228 31.6191 40.606 31.727 40.3567C31.8549 40.0614 31.9986 39.7731 32.1572 39.4931C32.2911 39.2566 32.2113 38.9573 31.9796 38.8182C31.9829 38.813 31.9862 38.8078 31.9896 38.8026C32.2134 38.9541 32.5185 38.9003 32.6765 38.6791C32.8638 38.417 33.0647 38.1648 33.2783 37.9237C33.4586 37.7202 33.4429 37.4108 33.2452 37.2265C33.2495 37.2221 33.2539 37.2178 33.2582 37.2134C33.4455 37.4081 33.7551 37.419 33.9557 37.2356C34.1932 37.0185 34.4422 36.8141 34.7014 36.6235C34.9203 36.4626 34.9701 36.157 34.8159 35.9353C34.821 35.9319 34.8262 35.9285 34.8314 35.9251C34.9728 36.1551 35.2726 36.2318 35.5077 36.0957C35.785 35.9352 36.0714 35.7897 36.3657 35.6607C36.6144 35.5517 36.7299 35.2648 36.6284 35.0149C36.6341 35.0127 36.6398 35.0106 36.6455 35.0085C36.732 35.2639 37.0068 35.4056 37.2661 35.3258C37.5705 35.232 37.8817 35.1554 38.1987 35.0971C38.4655 35.048 38.6436 34.7955 38.6024 34.5291C38.6081 34.5284 38.6138 34.5277 38.6195 34.527C38.6445 34.7954 38.8788 34.9968 39.1496 34.9793C39.465 34.9589 39.7851 34.9566 40.1092 34.9735C40.3802 34.9876 40.6121 34.7831 40.6336 34.5143C40.6403 34.515 40.647 34.5158 40.6537 34.5165C40.6163 34.7838 40.7985 35.0338 41.0663 35.0787C41.3762 35.1306 41.6891 35.2005 42.0042 35.2893C42.2659 35.3631 42.5376 35.2143 42.6175 34.9561C42.6229 34.9579 42.6282 34.9597 42.6336 34.9615C42.5401 35.2154 42.6658 35.4989 42.9188 35.599C43.0656 35.6572 43.2128 35.7195 43.3602 35.7863C43.3754 35.7935 43.3912 35.8 43.4073 35.8058C43.4638 35.826 43.522 35.8354 43.5793 35.835C43.6535 35.8343 43.7263 35.8171 43.7924 35.7854C43.8588 35.7534 43.9185 35.7067 43.966 35.6474C43.9999 35.605 44.0274 35.5565 44.0464 35.503C44.0529 35.4848 44.0583 35.4664 44.0626 35.448C44.1024 35.2911 44.1454 35.1372 44.1914 34.9862C44.2709 34.7261 44.1277 34.451 43.8709 34.3658C43.8728 34.3605 43.8747 34.3553 43.8766 34.35C44.1283 34.4485 44.414 34.3289 44.5195 34.0783C44.6465 33.7766 44.7869 33.4884 44.9395 33.2137C45.0714 32.9764 44.9894 32.6781 44.7572 32.5407C44.7607 32.535 44.7643 32.5294 44.7679 32.5238C44.9915 32.6745 45.2959 32.6207 45.4539 32.3999C45.6426 32.1361 45.844 31.8872 46.0565 31.6533C46.239 31.4525 46.2275 31.1437 46.0332 30.9569C46.0373 30.9529 46.0413 30.9489 46.0454 30.9449C46.228 31.1432 46.5365 31.1613 46.7412 30.9833C46.9843 30.7718 47.2382 30.5762 47.5011 30.3966C47.7252 30.2435 47.7856 29.9403 47.6398 29.7135C47.6449 29.7104 47.6501 29.7073 47.6553 29.7041C47.7875 29.9393 48.0839 30.0278 48.324 29.9012C48.6084 29.7514 48.9005 29.6181 49.1988 29.5013C49.4517 29.4023 49.5786 29.12 49.4868 28.866C49.4926 28.8641 49.4985 28.8622 49.5043 28.8603C49.5816 29.1191 49.8516 29.2706 50.1139 29.1996C50.4244 29.1156 50.7394 29.0483 51.0571 28.9978C51.3255 28.9552 51.5099 28.7063 51.4743 28.4384C51.4804 28.4378 51.4865 28.4371 51.4925 28.4365C51.5135 28.7059 51.7457 28.911 52.0172 28.8968C52.3388 28.8799 52.6612 28.8799 52.9828 28.8968C53.2543 28.911 53.4865 28.706 53.5075 28.4365C53.5135 28.4371 53.5196 28.4378 53.5257 28.4384C53.4901 28.7063 53.6744 28.9552 53.9429 28.9978C54.2606 29.0483 54.5756 29.1156 54.8861 29.1996C55.1484 29.2706 55.4184 29.1191 55.4957 28.8603C55.5015 28.8622 55.5073 28.8641 55.5132 28.866C55.4214 29.12 55.5482 29.4023 55.8012 29.5013C56.0995 29.6181 56.3916 29.7514 56.6759 29.9012C56.9161 30.0278 57.2125 29.9393 57.3447 29.7041C57.3499 29.7073 57.3551 29.7104 57.3602 29.7135C57.2143 29.9403 57.2748 30.2435 57.4989 30.3966C57.7618 30.5762 58.0156 30.7718 58.2588 30.9833C58.4635 31.1613 58.772 31.1432 58.9546 30.9449C58.9586 30.9489 58.9627 30.9529 58.9668 30.9569C58.7725 31.1437 58.761 31.4525 58.9435 31.6533C59.156 31.8872 59.3574 32.1361 59.5461 32.3999C59.704 32.6207 60.0085 32.6745 60.2321 32.5238C60.2357 32.5294 60.2393 32.535 60.2428 32.5407C60.0105 32.6781 59.9286 32.9764 60.0605 33.2137C60.2131 33.4884 60.3535 33.7766 60.4805 34.0783C60.586 34.3289 60.8717 34.4485 61.1234 34.35C61.1253 34.3553 61.1272 34.3605 61.1291 34.3658C60.8723 34.451 60.7291 34.7261 60.8085 34.9862C60.8546 35.1372 60.8976 35.2911 60.9374 35.448C60.9417 35.4664 60.9471 35.4848 60.9536 35.503C60.9726 35.5565 61.0001 35.605 61.034 35.6474C61.0815 35.7067 61.1411 35.7534 61.2076 35.7854C61.2731 35.817 61.3457 35.8344 61.4207 35.835C61.478 35.8354 61.5362 35.826 61.5927 35.8058C61.6088 35.8 61.6245 35.7935 61.6397 35.7863C61.7872 35.7196 61.9344 35.6572 62.0812 35.599C62.3342 35.4989 62.4599 35.2154 62.3664 34.9615C62.3718 34.9597 62.3771 34.9579 62.3825 34.9561C62.4624 35.2143 62.7341 35.3631 62.9957 35.2893C63.3109 35.2005 63.6238 35.1306 63.9337 35.0787C64.2015 35.0338 64.3837 34.7838 64.3463 34.5165C64.353 34.5158 64.3597 34.515 64.3664 34.5143C64.3879 34.7831 64.6198 34.9876 64.8908 34.9735C65.2149 34.9566 65.535 34.9589 65.8504 34.9793C66.1212 34.9968 66.3555 34.7954 66.3805 34.527C66.3862 34.5277 66.3919 34.5284 66.3976 34.5291C66.3564 34.7955 66.5345 35.048 66.8013 35.0971C67.1183 35.1554 67.4295 35.232 67.7338 35.3258C67.9932 35.4056 68.268 35.2639 68.3545 35.0085C68.3602 35.0106 68.3659 35.0127 68.3716 35.0149C68.2701 35.2648 68.3856 35.5517 68.6342 35.6607C68.9286 35.7897 69.215 35.9352 69.4923 36.0957C69.7273 36.2318 70.0272 36.1551 70.1686 35.9251C70.1738 35.9285 70.1789 35.9319 70.1841 35.9353C70.0299 36.157 70.0797 36.4626 70.2986 36.6235C70.5578 36.8141 70.8068 37.0185 71.0443 37.2356C71.2449 37.419 71.5545 37.4081 71.7418 37.2134C71.7461 37.2178 71.7504 37.2221 71.7548 37.2265C71.5571 37.4108 71.5414 37.7202 71.7216 37.9237C71.9352 38.1648 72.1362 38.417 72.3235 38.6791C72.4815 38.9003 72.7866 38.9541 73.0104 38.8026C73.0137 38.8078 73.0171 38.813 73.0204 38.8182C72.7887 38.9573 72.7089 39.2566 72.8428 39.4931C73.0014 39.7731 73.1451 40.0614 73.273 40.3567C73.3809 40.606 73.6676 40.7228 73.9182 40.622C73.9204 40.6278 73.9225 40.6336 73.9247 40.6394C73.6689 40.7259 73.5272 41.001 73.6074 41.2606C73.702 41.5667 73.7799 41.8783 73.84 42.1941C73.8908 42.4608 74.1447 42.6374 74.411 42.5942C74.4118 42.6002 74.4126 42.6063 74.4134 42.6123C74.1451 42.6397 73.9457 42.8759 73.9657 43.1466C73.9892 43.4642 73.9945 43.7847 73.9808 44.1067C73.9692 44.3778 74.1757 44.6077 74.4446 44.6268C74.444 44.6325 74.4435 44.6382 74.4429 44.6439C74.1756 44.6086 73.9271 44.7922 73.8839 45.06C73.8335 45.3721 73.7646 45.6848 73.676 45.997C73.6019 46.2581 73.7497 46.5296 74.007 46.6104C74.0048 46.6168 74.0026 46.6232 74.0004 46.6295C73.7481 46.5337 73.4639 46.6557 73.3606 46.9068C73.241 47.1975 73.1033 47.487 72.9467 47.7745C72.8166 48.0132 72.9013 48.3113 73.1353 48.4465C73.1324 48.4513 73.1294 48.4562 73.1264 48.461C72.8997 48.3134 72.5954 48.3731 72.4415 48.5974C72.3522 48.7276 72.2587 48.8573 72.1609 48.9862C72.1499 49.0002 72.1395 49.015 72.1298 49.0304C72.1068 49.067 72.0891 49.1056 72.0765 49.1453C72.0719 49.1598 72.068 49.1743 72.0648 49.1889C72.0631 49.1965 72.0616 49.2041 72.0603 49.2117C72.0362 49.3515 72.0733 49.4949 72.1598 49.6052C72.1945 49.6495 72.2372 49.6884 72.2871 49.7197C72.3025 49.7294 72.3183 49.7382 72.3344 49.7461C72.4785 49.8198 72.619 49.896 72.756 49.9746C72.9919 50.11 73.292 50.0317 73.4322 49.8004C73.437 49.8034 73.4418 49.8065 73.4466 49.8096C73.2945 50.033 73.3475 50.3383 73.5683 50.4969C73.8342 50.688 74.0839 50.8892 74.3178 51.0992C74.5198 51.2806 74.8289 51.2672 75.0145 51.0714C75.0193 51.0762 75.0241 51.081 75.0289 51.0858C74.8321 51.2702 74.8168 51.579 74.9968 51.7821C75.2121 52.025 75.4099 52.2768 75.5907 52.5362C75.7459 52.7588 76.0494 52.8164 76.2749 52.6686C76.2779 52.6735 76.2809 52.6784 76.284 52.6834C76.05 52.8173 75.9636 53.114 76.0917 53.3532C76.2438 53.6374 76.378 53.9285 76.4946 54.2249C76.594 54.4775 76.8761 54.6039 77.1298 54.5121C77.1317 54.518 77.1336 54.5238 77.1355 54.5297C76.8768 54.6063 76.7247 54.8755 76.7946 55.1378C76.8774 55.4485 76.9424 55.7631 76.99 56.08C77.0302 56.3486 77.2773 56.5351 77.5452 56.5021C77.5458 56.5083 77.5464 56.5145 77.547 56.5207C77.2775 56.5385 77.0698 56.7681 77.0806 57.0396C77.0935 57.3611 77.089 57.6833 77.0676 58.0044C77.0495 58.2756 77.2511 58.5107 77.5202 58.5356C77.5195 58.5417 77.5188 58.5479 77.518 58.5541C77.2506 58.5146 76.9991 58.6954 76.9526 58.9632C76.8975 59.2806 76.8258 59.5951 76.7378 59.905C76.6636 60.1666 76.8119 60.4386 77.07 60.5189C77.068 60.5248 77.066 60.5307 77.064 60.5365C76.8107 60.4423 76.527 60.5667 76.4258 60.819C76.3059 61.1176 76.1702 61.4099 76.0192 61.694C75.8918 61.934 75.9794 62.2309 76.2146 62.3638C76.2113 62.3691 76.2081 62.3745 76.2049 62.3798C75.9777 62.2339 75.6743 62.2948 75.5215 62.5194C75.3413 62.7844 75.1463 63.0397 74.937 63.2837C74.7602 63.4897 74.7805 63.7983 74.9804 63.9795C74.9762 63.9839 74.9719 63.9883 74.9677 63.9928C74.7789 63.8001 74.4699 63.7916 74.2708 63.9761C74.0372 64.1926 73.79 64.3967 73.5296 64.5868C73.3105 64.7468 73.2596 65.0516 73.4123 65.2737C73.4075 65.2768 73.4026 65.28 73.3977 65.2831C73.2587 65.0521 72.9602 64.9723 72.7239 65.1056C72.4485 65.2608 72.161 65.4018 71.8617 65.5272C71.6113 65.6321 71.4911 65.9169 71.5884 66.1685C71.582 66.1708 71.5756 66.173 71.5692 66.1753C71.4869 65.9183 71.2143 65.7721 70.9536 65.8479C70.6517 65.9356 70.3394 66.0084 70.0169 66.0652C69.7492 66.1123 69.569 66.3643 69.6091 66.6316C69.6034 66.6323 69.5977 66.633 69.5921 66.6337C69.5661 66.3644 69.3298 66.1636 69.0585 66.1831C68.9009 66.1945 68.7411 66.2022 68.5792 66.2061C68.5624 66.2061 68.5456 66.2071 68.5286 66.2089C68.4689 66.2152 68.4124 66.2319 68.361 66.2572C68.2284 66.3225 68.1292 66.4446 68.0947 66.5911C68.0815 66.6469 68.0777 66.7057 68.0849 66.7653C68.0869 66.7822 68.0897 66.799 68.0934 66.8153C68.1256 66.974 68.1536 67.1314 68.1776 67.2874C68.2189 67.5563 68.4672 67.7421 68.7355 67.7075C68.7361 67.713 68.7367 67.7186 68.7373 67.7242C68.4677 67.7446 68.2622 67.9763 68.2758 68.2478C68.2922 68.5748 68.2907 68.8954 68.2723 69.2091C68.2565 69.4801 68.4597 69.7134 68.7285 69.7364C68.7278 69.7431 68.727 69.7497 68.7262 69.7564C68.4593 69.7175 68.2084 69.8981 68.1619 70.1655C68.1062 70.4851 68.0328 70.7967 67.9427 71.0997C67.8655 71.3598 68.0097 71.6331 68.2659 71.7171C68.2639 71.7225 68.262 71.7278 68.2601 71.7332C68.0095 71.6338 67.7237 71.7513 67.6165 72.0005C67.4892 72.2966 67.3454 72.583 67.1864 72.8589C67.051 73.0941 67.1281 73.3934 67.358 73.5345C67.3547 73.5396 67.3513 73.5446 67.348 73.5497C67.1268 73.3952 66.8215 73.4442 66.66 73.6624C66.4689 73.9208 66.2635 74.1677 66.0455 74.4025C65.8606 74.6015 65.8689 74.9108 66.0618 75.0998C66.0574 75.104 66.053 75.1083 66.0485 75.1125C65.8665 74.913 65.5575 74.8937 65.3521 75.0715C65.1088 75.2821 64.8542 75.4794 64.5899 75.6628C64.3666 75.8178 64.3086 76.1221 64.457 76.348C64.4518 76.3512 64.4466 76.3544 64.4414 76.3576C64.3055 76.124 64.0073 76.0401 63.7689 76.1708C63.4865 76.3256 63.196 76.4656 62.899 76.5901C62.6483 76.6951 62.5282 76.9807 62.6263 77.2325C62.6205 77.2346 62.6148 77.2367 62.609 77.2387C62.5248 76.9819 62.2506 76.8378 61.9903 76.916C61.6821 77.0085 61.3692 77.0846 61.053 77.1438C60.7859 77.1938 60.6084 77.4474 60.6512 77.7141C60.6451 77.7149 60.639 77.7157 60.6329 77.7165C60.6053 77.4479 60.3685 77.2487 60.0976 77.2693C59.7782 77.2936 59.4571 77.3004 59.136 77.2889C58.8647 77.2792 58.6361 77.4875 58.6191 77.7568C58.6131 77.7562 58.6071 77.7557 58.601 77.7551C58.634 77.4874 58.4479 77.2405 58.1796 77.1999C57.8647 77.1523 57.5512 77.0863 57.2403 77.0013C56.9786 76.9297 56.7086 77.0799 56.6301 77.3378C56.6247 77.336 56.6194 77.3342 56.614 77.3324C56.7079 77.0797 56.5842 76.7965 56.3327 76.6948C56.0397 76.5763 55.7503 76.4395 55.4657 76.2837C55.2277 76.1533 54.93 76.2369 54.794 76.4698C54.7883 76.4662 54.7826 76.4627 54.7769 76.4591C54.9266 76.2346 54.871 75.9303 54.6492 75.7736C54.3925 75.5923 54.141 75.3936 53.8957 75.1769C53.6919 74.9969 53.3826 75.0131 53.1986 75.211C53.1945 75.2071 53.1905 75.2032 53.1865 75.1992C53.381 75.0111 53.3906 74.7011 53.2062 74.5011C53.0992 74.3851 52.9937 74.2651 52.8898 74.141C52.8786 74.127 52.8665 74.1135 52.8536 74.1006C52.812 74.0589 52.7644 74.026 52.7135 74.002C52.6457 73.9699 52.5727 73.9542 52.5 73.9542C52.4273 73.9542 52.3542 73.9699 52.2865 74.002C52.2355 74.026 52.188 74.0589 52.1464 74.1006C52.1335 74.1135 52.1214 74.127 52.1102 74.141C52.0063 74.2651 51.9008 74.3851 51.7938 74.5011C51.6093 74.7011 51.619 75.0111 51.8135 75.1992C51.8095 75.2032 51.8055 75.2071 51.8014 75.211C51.6174 75.0131 51.308 74.9969 51.1043 75.1769C50.859 75.3936 50.6074 75.5923 50.3508 75.7736C50.129 75.9303 50.0734 76.2346 50.2231 76.4591C50.2174 76.4627 50.2117 76.4662 50.206 76.4698C50.07 76.2369 49.7723 76.1533 49.5343 76.2837C49.2497 76.4395 48.9603 76.5763 48.6673 76.6948C48.4158 76.7965 48.2921 77.0797 48.386 77.3324C48.3806 77.3342 48.3752 77.336 48.3698 77.3378C48.2914 77.0799 48.0214 76.9297 47.7597 77.0013C47.4488 77.0863 47.1353 77.1523 46.8204 77.1999C46.5521 77.2405 46.366 77.4874 46.399 77.7551C46.3929 77.7557 46.3869 77.7562 46.3809 77.7568C46.3639 77.4875 46.1353 77.2792 45.864 77.2889C45.5429 77.3004 45.2218 77.2936 44.9023 77.2693C44.6315 77.2487 44.3947 77.4479 44.3671 77.7165C44.361 77.7157 44.3549 77.7149 44.3488 77.7141C44.3915 77.4474 44.2141 77.1938 43.947 77.1438C43.6308 77.0846 43.3178 77.0085 43.0097 76.916C42.7494 76.8378 42.4752 76.982 42.3909 77.2387C42.3852 77.2367 42.3794 77.2346 42.3737 77.2325C42.4718 76.9807 42.3517 76.6951 42.101 76.5901C41.804 76.4656 41.5135 76.3256 41.2311 76.1708C40.9927 76.0401 40.6945 76.124 40.5586 76.3576C40.5534 76.3544 40.5482 76.3512 40.543 76.348C40.6914 76.1221 40.6334 75.8178 40.4101 75.6628C40.1458 75.4794 39.8912 75.2821 39.6479 75.0715C39.4425 74.8938 39.1335 74.913 38.9515 75.1125C38.947 75.1083 38.9426 75.104 38.9382 75.0998C39.1311 74.9109 39.1394 74.6015 38.9545 74.4025C38.7365 74.1677 38.5311 73.9208 38.34 73.6624C38.1785 73.4442 37.8732 73.3952 37.652 73.5497C37.6486 73.5446 37.6453 73.5396 37.642 73.5345C37.8719 73.3935 37.949 73.0941 37.8135 72.8589C37.6546 72.583 37.5108 72.2966 37.3835 72.0005C37.2763 71.7513 36.9905 71.6338 36.7399 71.7332C36.738 71.7278 36.736 71.7225 36.7341 71.7171C36.9902 71.633 37.1345 71.3598 37.0572 71.0997C36.9672 70.7967 36.8937 70.4851 36.8381 70.1655C36.7916 69.8981 36.5407 69.7175 36.2738 69.7564C36.273 69.7497 36.2722 69.7431 36.2715 69.7364C36.5403 69.7134 36.7435 69.4801 36.7277 69.2091C36.7093 68.8954 36.7078 68.5748 36.7242 68.2478C36.7378 67.9763 36.5322 67.7446 36.2627 67.7242C36.2633 67.7186 36.2639 67.713 36.2644 67.7075C36.5328 67.7421 36.7811 67.5563 36.8224 67.2874C36.8464 67.1314 36.8744 66.9741 36.9066 66.8155C36.9105 66.798 36.9134 66.7802 36.9154 66.7622C36.922 66.7047 36.9184 66.6479 36.906 66.594C36.8725 66.449 36.7751 66.3239 36.639 66.2572C36.5876 66.2319 36.5311 66.2152 36.4714 66.2089C36.4544 66.2071 36.4375 66.2061 36.4208 66.2061C36.2589 66.2022 36.0991 66.1945 35.9415 66.1831C35.6702 66.1636 35.4338 66.3644 35.4079 66.6337C35.4022 66.633 35.3966 66.6323 35.3909 66.6316C35.431 66.3643 35.2508 66.1123 34.9831 66.0652C34.6606 66.0084 34.3483 65.9356 34.0464 65.8479C33.7857 65.7721 33.5131 65.9183 33.4308 66.1753C33.4244 66.173 33.418 66.1708 33.4116 66.1685C33.5089 65.9169 33.3887 65.6321 33.1383 65.5272C32.839 65.4018 32.5515 65.2608 32.2761 65.1056C32.0398 64.9723 31.7412 65.0521 31.6023 65.2831C31.5974 65.28 31.5925 65.2768 31.5876 65.2737C31.7404 65.0516 31.6895 64.7468 31.4704 64.5868C31.21 64.3967 30.9628 64.1926 30.7292 63.9761C30.5301 63.7916 30.2211 63.8001 30.0323 63.9928C30.0281 63.9884 30.0238 63.9839 30.0196 63.9795C30.2194 63.7983 30.2398 63.4897 30.063 63.2837C29.8537 63.0397 29.6587 62.7844 29.4785 62.5194C29.3257 62.2948 29.0223 62.2339 28.7951 62.3798C28.7919 62.3745 28.7886 62.3691 28.7854 62.3638C29.0206 62.2309 29.1082 61.934 28.9807 61.694C28.8297 61.4099 28.6941 61.1176 28.5742 60.819C28.473 60.5667 28.1893 60.4423 27.936 60.5365C27.934 60.5306 27.932 60.5248 27.93 60.5189C28.1881 60.4386 28.3364 60.1666 28.2622 59.905C28.1742 59.5951 28.1025 59.2807 28.0474 58.9632C28.0009 58.6954 27.7494 58.5146 27.482 58.5541C27.4812 58.5479 27.4805 58.5417 27.4798 58.5356C27.7489 58.5107 27.9505 58.2756 27.9324 58.0044C27.911 57.6833 27.9065 57.3611 27.9194 57.0396C27.9302 56.7681 27.7225 56.5385 27.453 56.5207C27.4536 56.5145 27.4542 56.5083 27.4548 56.5021C27.7227 56.5351 27.9697 56.3486 28.01 56.08C28.0576 55.7631 28.1226 55.4485 28.2054 55.1378C28.2753 54.8755 28.1232 54.6063 27.8645 54.5297C27.8664 54.5238 27.8683 54.518 27.8702 54.5121C28.1238 54.6039 28.406 54.4775 28.5053 54.2249C28.622 53.9285 28.7562 53.6374 28.9083 53.3532C29.0363 53.114 28.95 52.8173 28.716 52.6834C28.719 52.6785 28.7221 52.6735 28.7251 52.6686C28.9505 52.8164 29.2541 52.7588 29.4093 52.5362C29.59 52.2768 29.7879 52.025 30.0032 51.7821C30.1832 51.579 30.1679 51.2702 29.9711 51.0858C29.9759 51.081 29.9807 51.0762 29.9855 51.0714C30.1711 51.2672 30.4802 51.2806 30.6822 51.0992C30.9161 50.8892 31.1658 50.688 31.4317 50.4969C31.6525 50.3383 31.7055 50.033 31.5533 49.8096C31.5581 49.8065 31.5629 49.8034 31.5678 49.8004C31.708 50.0317 32.0081 50.11 32.244 49.9746C32.381 49.8961 32.5215 49.8198 32.6655 49.7461C32.6825 49.7378 32.6992 49.7285 32.7155 49.7181C32.7634 49.6877 32.8045 49.6501 32.8383 49.6076C32.8856 49.5481 32.9179 49.4795 32.9343 49.4077C32.9505 49.3368 32.9514 49.2621 32.9352 49.1889Z" fill="#FF7F8A" stroke="black" stroke-linecap="round" stroke-dasharray="1 1"/>
</svg>
