<svg width="120" height="121" viewBox="0 0 120 121" fill="none" xmlns="http://www.w3.org/2000/svg">
<path d="M12.7855 52.1812C12.8073 52.1675 12.8287 52.1529 12.8497 52.1373C13.2724 51.824 13.3769 51.2408 13.1015 50.8027C13.0844 50.7753 13.0661 50.7491 13.0468 50.7239L12.9034 50.5305C12.8501 50.4585 12.789 50.3958 12.7221 50.3426C12.6906 50.2632 12.6484 50.1864 12.5951 50.1145L12.4409 49.9065C12.3424 49.7736 12.2457 49.6405 12.1509 49.507C12.048 49.3623 11.9137 49.2532 11.7638 49.1824C11.7529 49.017 11.7007 48.8521 11.6039 48.7033C11.426 48.4302 11.2556 48.1562 11.0925 47.8813C11.0021 47.7288 10.8774 47.6091 10.7342 47.5263C10.7372 47.3608 10.6991 47.1924 10.6154 47.0362C10.4618 46.7499 10.3159 46.4629 10.1775 46.1752C10.1009 46.0159 9.9876 45.8861 9.8526 45.7912C9.87009 45.6271 9.84714 45.4564 9.77782 45.2938C9.65065 44.9956 9.53136 44.6969 9.41978 44.3978C9.35819 44.2326 9.25761 44.0934 9.13237 43.9867C9.16466 43.8254 9.15752 43.6538 9.10374 43.486C9.00492 43.1777 8.91409 42.8692 8.8311 42.5606C8.78546 42.3908 8.6988 42.2431 8.58466 42.1252C8.63183 41.9681 8.64091 41.7971 8.60346 41.6254C8.53452 41.3094 8.47363 40.9934 8.4206 40.6777C8.39155 40.5048 8.31971 40.3497 8.21775 40.2215C8.27964 40.0698 8.30506 39.9008 8.28441 39.7267C8.24635 39.4057 8.21629 39.0851 8.19406 38.7651C8.1819 38.59 8.12535 38.4286 8.03617 38.291C8.11259 38.146 8.15435 37.9801 8.15067 37.8046C8.14391 37.482 8.14502 37.1602 8.15382 36.8395C8.15865 36.6636 8.11779 36.4972 8.04203 36.3515C8.13238 36.2143 8.19012 36.0529 8.20338 35.8775C8.22765 35.5563 8.25958 35.2363 8.299 34.9177C8.32064 34.7429 8.29575 34.573 8.23402 34.4205C8.33726 34.2924 8.41025 34.1369 8.44012 33.9633C8.49471 33.646 8.55671 33.3304 8.62593 33.0167C8.66395 32.8444 8.65504 32.6726 8.60772 32.5148C8.72267 32.3968 8.80999 32.2486 8.85596 32.0782C8.93987 31.7672 9.03089 31.4583 9.12885 31.1518C9.18261 30.9836 9.18952 30.8117 9.15685 30.65C9.2822 30.5429 9.38276 30.4032 9.4441 30.2376C9.5561 29.9352 9.67489 29.6355 9.8003 29.3386C9.86904 29.1758 9.89141 29.0051 9.87339 28.8411C10.0079 28.7456 10.1206 28.6154 10.1966 28.4559C10.3352 28.1645 10.4803 27.8762 10.6317 27.5912C10.7146 27.4351 10.752 27.2669 10.7486 27.1019C10.8911 27.0185 11.0149 26.8987 11.1046 26.7464C11.2684 26.4681 11.4383 26.1935 11.6141 25.9226C11.7104 25.7743 11.7624 25.6099 11.7733 25.4451C11.9225 25.3745 12.0564 25.2658 12.159 25.1218C12.3465 24.8588 12.5396 24.5998 12.7383 24.3452C12.8471 24.2057 12.9131 24.0464 12.9382 23.8831C13.0931 23.8257 13.2358 23.729 13.3506 23.5943C13.56 23.3485 13.7748 23.1072 13.9948 22.8707C14.1152 22.7411 14.1947 22.5882 14.2339 22.4277C14.3931 22.3839 14.5436 22.3 14.6696 22.1758C14.8995 21.9491 15.1344 21.7274 15.374 21.5109C15.5052 21.3924 15.5976 21.247 15.6506 21.0907C15.813 21.0609 15.9702 20.9904 16.1064 20.8777C16.3551 20.6721 16.6083 20.472 16.8658 20.2775C17.0068 20.1711 17.1117 20.0344 17.1782 19.8835C17.3424 19.8681 17.5052 19.8119 17.6508 19.7118C17.9164 19.5292 18.1861 19.3525 18.4598 19.182C18.6097 19.0886 18.7262 18.962 18.806 18.8176C18.9708 18.8171 19.1379 18.7757 19.2918 18.6892C19.5724 18.5316 19.8566 18.3803 20.1444 18.2355C20.302 18.1562 20.4296 18.0409 20.5221 17.9045C20.6862 17.9191 20.8562 17.8933 21.0174 17.8214C21.3107 17.6905 21.6074 17.5663 21.9072 17.449C22.0713 17.3847 22.2089 17.282 22.3137 17.1551C22.4754 17.1849 22.6469 17.175 22.8138 17.1187C23.1179 17.016 23.4249 16.9203 23.7347 16.8319C23.9038 16.7836 24.0503 16.6946 24.1665 16.5785C24.3245 16.6234 24.4958 16.6299 24.667 16.5898C24.9794 16.5167 25.2944 16.4508 25.6118 16.3926C25.7844 16.3608 25.9385 16.2866 26.0652 16.1825C26.2179 16.2422 26.3874 16.2651 26.5614 16.2418C26.8793 16.1992 27.1993 16.1641 27.5214 16.1368C27.6962 16.122 27.8566 16.0631 27.9927 15.972C28.1388 16.0461 28.3052 16.0852 28.4805 16.0789C28.8004 16.0673 29.1221 16.0634 29.4455 16.0674C29.6212 16.0695 29.7869 16.0262 29.9314 15.9484C30.0698 16.0365 30.2319 16.0916 30.4074 16.1022C30.7264 16.1214 31.0469 16.1483 31.3688 16.1831C31.5439 16.202 31.7134 16.1745 31.8649 16.1104C31.9947 16.2116 32.1513 16.2821 32.3254 16.3092C32.6409 16.3583 32.9575 16.4151 33.2752 16.4796C33.4484 16.5148 33.6202 16.5029 33.7774 16.4528C33.8976 16.5659 34.0476 16.6508 34.219 16.6938C34.5286 16.7715 34.8392 16.8566 35.1505 16.9495C35.3203 17.0001 35.493 17.0035 35.6544 16.9672C35.7644 17.0909 35.9067 17.1889 36.0743 17.2468C36.3764 17.3513 36.6791 17.4631 36.9824 17.5823C37.1476 17.6473 37.3196 17.6652 37.4838 17.6426C37.5833 17.7752 37.7172 17.8849 37.8797 17.9565C38.0235 18.0199 38.1674 18.085 38.3113 18.1518C38.346 18.1687 38.382 18.1838 38.4191 18.1968C38.6763 18.2877 38.9505 18.2667 39.1834 18.1552C39.3155 18.092 39.4343 17.9996 39.5292 17.882C39.5994 17.7952 39.6559 17.6955 39.6945 17.5855C39.7076 17.5483 39.7184 17.5108 39.7269 17.4731C39.7648 17.32 39.8039 17.1681 39.8443 17.0173C39.8899 16.847 39.8887 16.6751 39.8485 16.5154C39.9677 16.4019 40.0606 16.2574 40.1131 16.0891C40.2096 15.7799 40.3115 15.4758 40.4187 15.1768C40.4782 15.0111 40.4912 14.84 40.4645 14.6777C40.5927 14.5749 40.6973 14.439 40.7638 14.276C40.8858 13.9771 41.0133 13.6837 41.1461 13.3956C41.2196 13.2362 41.2475 13.0674 41.2354 12.9039C41.3718 12.813 41.4877 12.6872 41.5684 12.5313C41.7164 12.2452 41.8698 11.9648 42.0284 11.6901C42.1159 11.5385 42.1592 11.3736 42.1623 11.2102C42.3061 11.1324 42.4327 11.0183 42.5272 10.8711C42.701 10.6003 42.8801 10.3356 43.0642 10.0769C43.1654 9.93474 43.2241 9.77515 43.2429 9.61325C43.3929 9.54962 43.5295 9.44834 43.6374 9.31123C43.8362 9.05865 44.04 8.81233 44.2486 8.57226C44.3629 8.4408 44.4367 8.288 44.4711 8.12902C44.6263 8.08023 44.7717 7.99281 44.8922 7.86707C45.1145 7.63517 45.3415 7.40973 45.573 7.19073C45.6996 7.07097 45.788 6.92598 45.8378 6.771C45.9971 6.73762 46.1505 6.66477 46.2828 6.55132C46.5262 6.34258 46.774 6.14042 47.0258 5.94487C47.1638 5.83778 47.266 5.70174 47.3306 5.55197C47.4928 5.53432 47.6529 5.47665 47.7958 5.37634C48.0579 5.19247 48.3238 5.0153 48.5934 4.84483C48.7412 4.75134 48.8562 4.62548 48.9349 4.48231C49.0983 4.48035 49.2635 4.43823 49.4157 4.35185C49.6939 4.19391 49.9756 4.04275 50.2603 3.89838C50.4166 3.81915 50.5431 3.7045 50.635 3.56915C50.7981 3.58262 50.9668 3.55617 51.1266 3.4843C51.4186 3.353 51.7134 3.22855 52.0108 3.11096C52.1738 3.04649 52.3105 2.94393 52.4146 2.81752C52.5759 2.84596 52.7464 2.8351 52.9123 2.77812C53.2153 2.67401 53.5207 2.57681 53.828 2.48651C53.9963 2.43706 54.1418 2.34723 54.257 2.23068C54.4151 2.27355 54.586 2.27808 54.7564 2.23619C55.0679 2.15965 55.381 2.09003 55.6955 2.02737C55.8677 1.99307 56.0206 1.91647 56.1458 1.81052C56.2996 1.86726 56.4696 1.88691 56.6431 1.86021C56.9603 1.81143 57.2785 1.76961 57.5975 1.73476C57.7721 1.71568 57.9313 1.65273 58.0653 1.55807C58.2136 1.6281 58.3813 1.66254 58.5566 1.65109C58.8769 1.63017 59.1976 1.61623 59.5185 1.60925C59.6942 1.60544 59.8583 1.55655 60 1.47388C60.1417 1.55655 60.3058 1.60544 60.4814 1.60925C60.8024 1.61623 61.1231 1.63018 61.4434 1.6511C61.6187 1.66255 61.7864 1.62811 61.9347 1.55808C62.0687 1.65273 62.2279 1.71568 62.4025 1.73476C62.7215 1.76962 63.0397 1.81143 63.3569 1.86021C63.5304 1.88691 63.7004 1.86727 63.8542 1.81052C63.9793 1.91647 64.1323 1.99308 64.3045 2.02738C64.619 2.09004 64.9321 2.15965 65.2435 2.2362C65.4139 2.27808 65.5849 2.27355 65.743 2.23068C65.8582 2.34723 66.0036 2.43707 66.172 2.48652C66.4793 2.57681 66.7847 2.67402 67.0877 2.77813C67.2536 2.83511 67.4241 2.84596 67.5854 2.81752C67.6895 2.94392 67.8262 3.04649 67.9892 3.11097C68.2866 3.22855 68.5814 3.353 68.8734 3.4843C69.0332 3.55617 69.2019 3.58262 69.365 3.56915C69.4569 3.7045 69.5834 3.81915 69.7397 3.89838C70.0244 4.04276 70.306 4.19392 70.5843 4.35185C70.7364 4.43823 70.9016 4.48035 71.065 4.48231C71.1438 4.62548 71.2587 4.75134 71.4066 4.84483C71.6762 5.0153 71.9421 5.19247 72.2041 5.37634C72.3471 5.47665 72.5072 5.53432 72.6694 5.55197C72.734 5.70174 72.8362 5.83778 72.9741 5.94487C73.226 6.14042 73.4738 6.34258 73.7172 6.55132C73.8495 6.66477 74.0029 6.73761 74.1622 6.77099C74.212 6.92596 74.3004 7.07096 74.427 7.19072C74.6585 7.40972 74.8855 7.63517 75.1077 7.86707C75.2282 7.9928 75.3737 8.08022 75.5288 8.12901C75.5633 8.28799 75.6371 8.4408 75.7513 8.57225C75.96 8.81232 76.1638 9.05865 76.3626 9.31122C76.4705 9.44833 76.607 9.54961 76.757 9.61324C76.7758 9.77514 76.8345 9.93473 76.9357 10.0769C77.1198 10.3356 77.2989 10.6003 77.4727 10.871C77.5672 11.0183 77.6939 11.1324 77.8376 11.2101C77.8408 11.3736 77.8841 11.5385 77.9716 11.6901C78.1302 11.9648 78.2836 12.2452 78.4316 12.5313C78.5122 12.6872 78.6282 12.813 78.7646 12.9038C78.7524 13.0674 78.7804 13.2362 78.8539 13.3956C78.9866 13.6836 79.1141 13.9771 79.2362 14.276C79.3027 14.439 79.4073 14.5749 79.5355 14.6777C79.5088 14.84 79.5218 15.0111 79.5812 15.1768C79.6884 15.4758 79.7904 15.7799 79.8868 16.0891C79.9393 16.2574 80.0322 16.4019 80.1515 16.5154C80.1113 16.6751 80.1101 16.8469 80.1557 17.0173C80.1961 17.168 80.2352 17.3199 80.273 17.4729C80.2817 17.5115 80.2928 17.5499 80.3064 17.588C80.345 17.6971 80.4012 17.796 80.4709 17.8821C80.5657 17.9997 80.6845 18.092 80.8166 18.1552C81.0502 18.2671 81.3254 18.2878 81.5833 18.1959C81.6195 18.1831 81.6546 18.1684 81.6884 18.1519C81.8324 18.085 81.9764 18.0199 82.1202 17.9565C82.2827 17.8849 82.4166 17.7752 82.5161 17.6427C82.6803 17.6653 82.8524 17.6473 83.0176 17.5823C83.3208 17.4631 83.6236 17.3513 83.9257 17.2468C84.0932 17.1889 84.2355 17.0909 84.3455 16.9673C84.507 17.0035 84.6797 17.0001 84.8495 16.9495C85.1608 16.8566 85.4713 16.7715 85.7809 16.6938C85.9524 16.6508 86.1023 16.5659 86.2225 16.4528C86.3797 16.503 86.5516 16.5148 86.7247 16.4796C87.0424 16.4151 87.3591 16.3583 87.6745 16.3092C87.8486 16.2821 88.0052 16.2116 88.135 16.1104C88.2865 16.1745 88.456 16.202 88.6312 16.1831C88.9531 16.1483 89.2736 16.1214 89.5926 16.1022C89.768 16.0916 89.9301 16.0365 90.0686 15.9484C90.2131 16.0262 90.3787 16.0695 90.5544 16.0674C90.8778 16.0634 91.1996 16.0673 91.5195 16.0789C91.6948 16.0852 91.8611 16.0461 92.0072 15.972C92.1433 16.0631 92.3038 16.122 92.4785 16.1368C92.8006 16.1641 93.1207 16.1992 93.4386 16.2418C93.6126 16.2651 93.7821 16.2422 93.9347 16.1825C94.0614 16.2866 94.2155 16.3608 94.3882 16.3926C94.7055 16.4508 95.0205 16.5167 95.333 16.5898C95.5042 16.6299 95.6755 16.6234 95.8335 16.5785C95.9497 16.6946 96.0961 16.7836 96.2653 16.8319C96.5751 16.9203 96.8821 17.016 97.1862 17.1187C97.3531 17.175 97.5245 17.1849 97.6863 17.1551C97.791 17.282 97.9286 17.3847 98.0927 17.449C98.3925 17.5663 98.6892 17.6905 98.9826 17.8214C99.1437 17.8933 99.3137 17.9191 99.4778 17.9045C99.5704 18.0409 99.6979 18.1562 99.8556 18.2355C100.143 18.3803 100.428 18.5316 100.708 18.6893C100.862 18.7757 101.029 18.8171 101.194 18.8176C101.274 18.962 101.39 19.0886 101.54 19.182C101.814 19.3525 102.084 19.5292 102.349 19.7118C102.495 19.8119 102.658 19.8681 102.822 19.8835C102.888 20.0344 102.993 20.1711 103.134 20.2775C103.392 20.472 103.645 20.6721 103.894 20.8778C104.03 20.9904 104.187 21.0609 104.349 21.0907C104.402 21.247 104.495 21.3924 104.626 21.5109C104.866 21.7274 105.1 21.9491 105.33 22.1758C105.456 22.3 105.607 22.3839 105.766 22.4277C105.805 22.5882 105.885 22.7411 106.005 22.8707C106.225 23.1072 106.44 23.3485 106.649 23.5943C106.764 23.729 106.907 23.8257 107.062 23.8831C107.087 24.0464 107.153 24.2057 107.262 24.3452C107.46 24.5998 107.653 24.8588 107.841 25.1218C107.944 25.2658 108.077 25.3745 108.227 25.4451C108.238 25.6099 108.29 25.7743 108.386 25.9226C108.562 26.1935 108.732 26.4681 108.895 26.7463C108.985 26.8987 109.109 27.0185 109.251 27.1019C109.248 27.2669 109.285 27.4351 109.368 27.5912C109.52 27.8762 109.665 28.1645 109.803 28.4559C109.879 28.6154 109.992 28.7456 110.127 28.8411C110.109 29.0051 110.131 29.1758 110.2 29.3386C110.325 29.6355 110.444 29.9352 110.556 30.2376C110.617 30.4032 110.718 30.5429 110.843 30.65C110.81 30.8117 110.817 30.9836 110.871 31.1518C110.969 31.4583 111.06 31.7672 111.144 32.0782C111.19 32.2486 111.277 32.3968 111.392 32.5148C111.345 32.6726 111.336 32.8443 111.374 33.0166C111.443 33.3304 111.505 33.646 111.56 33.9633C111.59 34.1369 111.663 34.2924 111.766 34.4205C111.704 34.573 111.679 34.7429 111.701 34.9177C111.74 35.2363 111.772 35.5563 111.797 35.8775C111.81 36.0529 111.868 36.2142 111.958 36.3514C111.882 36.4972 111.841 36.6636 111.846 36.8394C111.855 37.1602 111.856 37.482 111.849 37.8046C111.846 37.9801 111.887 38.146 111.964 38.291C111.875 38.4286 111.818 38.59 111.806 38.7651C111.784 39.0851 111.754 39.4056 111.716 39.7266C111.695 39.9008 111.72 40.0698 111.782 40.2215C111.68 40.3497 111.608 40.5047 111.579 40.6777C111.526 40.9934 111.465 41.3094 111.396 41.6254C111.359 41.7971 111.368 41.968 111.415 42.1252C111.301 42.2431 111.215 42.3908 111.169 42.5605C111.086 42.8692 110.995 43.1777 110.896 43.486C110.842 43.6538 110.835 43.8253 110.868 43.9867C110.742 44.0934 110.642 44.2326 110.58 44.3977C110.469 44.6968 110.349 44.9956 110.222 45.2938C110.153 45.4564 110.13 45.6271 110.147 45.7911C110.012 45.8861 109.899 46.0159 109.822 46.1752C109.684 46.4629 109.538 46.7499 109.385 47.0362C109.301 47.1923 109.263 47.3608 109.266 47.5262C109.123 47.6091 108.998 47.7288 108.907 47.8812C108.744 48.1561 108.574 48.4302 108.396 48.7033C108.299 48.8521 108.247 49.017 108.236 49.1823C108.086 49.2531 107.952 49.3623 107.849 49.507C107.754 49.6405 107.658 49.7736 107.559 49.9065L107.405 50.1145C107.352 50.1864 107.309 50.2632 107.278 50.3426C107.211 50.3958 107.15 50.4585 107.097 50.5305L106.953 50.724C106.934 50.7486 106.916 50.7744 106.899 50.8011C106.854 50.8731 106.819 50.949 106.794 51.0269L12.7855 52.1812ZM12.7855 52.1812C12.7637 52.1949 12.7412 52.2078 12.718 52.2199C12.7127 52.2227 12.7075 52.2254 12.7022 52.2282M12.7855 52.1812C12.7583 52.1983 12.7304 52.214 12.7022 52.2282M12.7022 52.2282C12.5527 52.3033 12.3904 52.3377 12.2299 52.3337C12.1275 52.3311 12.0259 52.3129 11.9288 52.2796C11.9063 52.3818 11.8679 52.4804 11.8145 52.5713M12.7022 52.2282C12.5643 52.3005 12.4277 52.3738 12.2925 52.4479C12.1406 52.5313 11.9764 52.571 11.8145 52.5713M11.8145 52.5713C11.5166 52.5719 11.2261 52.439 11.033 52.1989C11.0006 52.1586 10.971 52.1153 10.9445 52.0692C10.6651 52.2371 10.3913 52.4091 10.1232 52.585C10.151 52.6254 10.1754 52.6672 10.1964 52.71C10.3345 52.9903 10.3302 53.3142 10.1992 53.5858M11.8145 52.5713C11.7326 52.7109 11.6156 52.8326 11.4671 52.9218C11.1942 53.0856 10.9272 53.2534 10.6658 53.425C10.521 53.5201 10.3605 53.5727 10.1992 53.5858M10.1992 53.5858C9.89872 53.6103 9.59509 53.498 9.38312 53.2685C9.3507 53.2334 9.32043 53.1955 9.29264 53.155C9.02766 53.3452 8.76867 53.5394 8.51562 53.7374C8.54636 53.7749 8.5739 53.8141 8.5983 53.8545C8.76017 54.1224 8.78345 54.4459 8.67574 54.7281M10.1992 53.5858C10.129 53.7316 10.0223 53.8623 9.88152 53.9633C9.62385 54.1481 9.37222 54.3368 9.12657 54.5291C8.99036 54.6358 8.83515 54.7015 8.67574 54.7281M8.67574 54.7281C8.37788 54.7779 8.06537 54.6911 7.83478 54.4795C7.79996 54.4476 7.76701 54.4128 7.73627 54.3752C7.48861 54.5871 7.24723 54.8029 7.01207 55.0224C7.04733 55.0585 7.07932 55.0966 7.10802 55.1364C7.29004 55.3884 7.34043 55.7067 7.25819 55.9956M8.67574 54.7281C8.61813 54.8791 8.52302 55.0182 8.39159 55.1306C8.15115 55.3362 7.91697 55.5456 7.689 55.7585C7.56285 55.8763 7.41431 55.9552 7.25819 55.9956M7.25819 55.9956C6.96748 56.0709 6.6505 56.013 6.40285 55.8251C6.36375 55.7954 6.32638 55.7625 6.29111 55.7264C6.06348 55.959 5.84237 56.1952 5.62769 56.4349C5.66833 56.4696 5.70551 56.5069 5.73919 56.5463C5.93903 56.7804 6.01582 57.0901 5.96019 57.3826M7.25819 55.9956C7.21404 56.1507 7.13168 56.2973 7.01093 56.4206C6.78985 56.6463 6.57524 56.8756 6.36704 57.1082C6.25219 57.2366 6.11167 57.3283 5.96019 57.3826M5.96019 57.3826C5.67991 57.4831 5.36208 57.4554 5.09978 57.2944C5.05555 57.2673 5.01289 57.2364 4.97227 57.2016C4.76703 57.4533 4.56846 57.7084 4.37651 57.9666C4.42252 57.9992 4.46497 58.0349 4.50376 58.0734C4.72015 58.288 4.82272 58.5868 4.79409 58.8807M5.96019 57.3826C5.93013 57.5407 5.86141 57.6937 5.75253 57.8271C5.55289 58.0718 5.35989 58.3197 5.17346 58.5707C5.07097 58.7088 4.93968 58.8128 4.79409 58.8807M4.79409 58.8807C4.5265 59.0054 4.21059 59.0081 3.93623 58.8755C3.88705 58.8517 3.8392 58.8235 3.7932 58.791C3.61224 59.0598 3.43808 59.3317 3.27065 59.6064C3.32141 59.6358 3.36866 59.6689 3.41222 59.7053C3.64433 59.8992 3.77203 60.1855 3.77034 60.4789M4.79409 58.8807C4.77852 59.0405 4.72411 59.1989 4.62807 59.3415C4.45171 59.6033 4.2821 59.8681 4.11919 60.1357C4.0299 60.2824 3.90889 60.3979 3.77034 60.4789M3.77034 60.4789C3.51707 60.6268 3.20519 60.6592 2.92129 60.5549C2.86801 60.5354 2.81572 60.511 2.76498 60.4817C2.60974 60.7655 2.46136 61.052 2.31979 61.3409C2.37428 61.3661 2.42547 61.3955 2.47313 61.4287C2.72012 61.6008 2.87222 61.8733 2.89714 62.1644M3.77034 60.4789C3.76942 60.6393 3.72977 60.8018 3.6473 60.9525C3.4957 61.2293 3.35094 61.5089 3.21295 61.7908C3.1375 61.945 3.02763 62.0711 2.89714 62.1644M2.89714 62.1644C2.65948 62.3343 2.35342 62.3953 2.06221 62.319C2.00604 62.3043 1.95043 62.2845 1.89597 62.2593C1.76743 62.5558 1.64577 62.8545 1.53094 63.1551C1.58801 63.1754 1.64214 63.2004 1.69302 63.2295C1.95383 63.3787 2.12939 63.636 2.18038 63.9231M2.89714 62.1644C2.91083 62.3242 2.88616 62.4896 2.81779 62.6471C2.69205 62.9367 2.57317 63.2285 2.46111 63.5224C2.39993 63.6828 2.30192 63.8184 2.18038 63.9231M2.18038 63.9231C1.95945 64.1136 1.6608 64.2021 1.36435 64.153C1.30653 64.1434 1.24881 64.1286 1.19176 64.1083C1.09043 64.4152 0.995995 64.7237 0.908386 65.0338C0.965454 65.0485 1.02014 65.0679 1.07212 65.0915C1.34731 65.2163 1.5467 65.4579 1.6235 65.7407M2.18038 63.9231C2.20844 64.0811 2.19878 64.2482 2.14485 64.4112C2.04566 64.711 1.95334 65.0127 1.86784 65.3159C1.82116 65.4814 1.73545 65.6254 1.6235 65.7407M1.6235 65.7407C1.41934 65.9509 1.12789 66.0657 0.826683 66.0416C0.769798 66.037 0.71257 66.0275 0.655518 66.0128C0.581764 66.3274 0.514854 66.6433 0.454742 66.9601C0.511658 66.9696 0.566681 66.9838 0.619484 67.0021C0.906105 67.1018 1.12714 67.3256 1.2288 67.6016M1.6235 65.7407C1.66563 65.8958 1.67088 66.0632 1.63155 66.2307C1.55933 66.5381 1.49394 66.8468 1.43533 67.1565C1.40332 67.3257 1.33042 67.4768 1.2288 67.6016M1.2288 67.6016C1.04302 67.8297 0.761253 67.9696 0.457748 67.9708C0.401894 67.971 0.345299 67.9665 0.288437 67.957C0.24231 68.2769 0.20298 68.5975 0.17038 68.9185C0.227097 68.923 0.282387 68.9322 0.335861 68.9457C0.630974 69.0199 0.871262 69.2242 0.996559 69.4911M1.2288 67.6016C1.28442 67.7526 1.30431 67.9192 1.27966 68.0897C1.23444 68.4022 1.19599 68.7155 1.16427 69.0294C1.14693 69.2009 1.08722 69.3579 0.996559 69.4911M0.996559 69.4911C0.830605 69.7348 0.560966 69.8985 0.257759 69.9251C0.202881 69.9299 0.146904 69.9302 0.0902405 69.9257C0.0716019 70.2484 0.0596848 70.5712 0.0544205 70.8941C0.110802 70.8938 0.166161 70.8981 0.220116 70.9069C0.521065 70.9555 0.778328 71.139 0.925964 71.3947M0.996559 69.4911C1.06503 69.6369 1.09917 69.8014 1.08915 69.9735C1.07079 70.2888 1.05914 70.6045 1.05413 70.9201C1.05139 71.0926 1.00513 71.2542 0.925964 71.3947M0.925964 71.3947C0.78096 71.6519 0.525589 71.838 0.225136 71.8897C0.171288 71.899 0.115997 71.904 0.0596313 71.9042C0.068222 72.2273 0.0834351 72.5501 0.105217 72.8723C0.161072 72.8673 0.216309 72.8671 0.270523 72.8712C0.574829 72.8943 0.846855 73.0557 1.01549 73.2984M0.925964 71.3947C1.00658 71.5343 1.05451 71.6954 1.05902 71.8679C1.06728 72.1838 1.08216 72.4994 1.1036 72.8145C1.11532 72.9867 1.0827 73.1517 1.01549 73.2984M1.01549 73.2984C0.892349 73.567 0.653091 73.7739 0.357635 73.8504C0.305008 73.864 0.250595 73.8735 0.194748 73.8784C0.230225 74.1997 0.272232 74.5201 0.320709 74.8395C0.376213 74.8298 0.431488 74.825 0.486099 74.8246C0.791016 74.8226 1.0752 74.9609 1.26324 75.1886M1.01549 73.2984C1.10753 73.4308 1.16878 73.5875 1.18765 73.7591C1.22221 74.0733 1.2633 74.3867 1.31085 74.6991C1.33683 74.8697 1.31804 75.0369 1.26324 75.1886M1.26324 75.1886C1.16291 75.4663 0.941917 75.6922 0.65416 75.7931C0.602623 75.8111 0.548958 75.8252 0.493446 75.8348C0.555428 76.152 0.62384 76.4678 0.698624 76.782C0.753403 76.7677 0.80835 76.7582 0.863007 76.7534C1.16644 76.7264 1.46081 76.8406 1.6669 77.0517M1.26324 75.1886C1.36594 75.3129 1.43996 75.464 1.473 75.6334C1.53351 75.9437 1.60044 76.2527 1.67374 76.56C1.71378 76.7279 1.70891 76.896 1.6669 77.0517M1.6669 77.0517C1.59004 77.3366 1.38883 77.5799 1.11079 77.7044C1.06071 77.7268 1.00815 77.7454 0.953369 77.7596C1.04147 78.0705 1.13588 78.3795 1.23657 78.6863C1.2902 78.6674 1.34441 78.6534 1.3987 78.644C1.69859 78.592 2.00118 78.6813 2.22402 78.8743M1.6669 77.0517C1.77953 77.1671 1.86581 77.3114 1.91279 77.4775C1.99884 77.7816 2.09121 78.0839 2.18983 78.384C2.24369 78.5479 2.25286 78.7157 2.22402 78.8743M2.22402 78.8743C2.17127 79.1644 1.99136 79.4234 1.72507 79.5708C1.67683 79.5975 1.62576 79.6205 1.57209 79.6394C1.68588 79.9418 1.80589 80.2417 1.93207 80.539C1.98399 80.5156 2.03689 80.4971 2.09027 80.4831C2.38462 80.406 2.69357 80.4694 2.93186 80.6429M2.22402 78.8743C2.34583 78.9798 2.44381 79.1164 2.50449 79.2779C2.61565 79.5736 2.73299 79.8669 2.85648 80.1575C2.9239 80.3162 2.94719 80.4825 2.93186 80.6429M2.93186 80.6429C2.90382 80.9362 2.74653 81.2095 2.4938 81.3789C2.44792 81.4096 2.3989 81.4369 2.34692 81.4603C2.48594 81.7519 2.63106 82.0405 2.78223 82.326C2.83205 82.2981 2.88326 82.275 2.93536 82.2565C3.22188 82.1546 3.53499 82.1911 3.78724 82.3434M2.93186 80.6429C3.06207 80.7377 3.17118 80.8653 3.2453 81.021C3.38101 81.3059 3.5228 81.5879 3.67059 81.8667C3.75127 82.0189 3.78872 82.1825 3.78724 82.3434M3.78724 82.3434C3.78452 82.638 3.65138 82.9237 3.41432 83.1142C3.37119 83.1488 3.32462 83.1803 3.27477 83.2081C3.4384 83.4865 3.60801 83.7614 3.78356 84.0326C3.83112 84.0002 3.88052 83.9725 3.93123 83.9494C4.2074 83.8233 4.522 83.8324 4.78627 83.9617M3.78724 82.3434C3.925 82.4266 4.04461 82.5443 4.13183 82.6928C4.29147 82.9646 4.45703 83.233 4.62847 83.4976C4.72204 83.642 4.77361 83.8015 4.78627 83.9617M4.78627 83.9617C4.80943 84.2551 4.70222 84.5509 4.48344 84.7614C4.44326 84.8001 4.39931 84.8358 4.35173 84.8682C4.53918 85.1308 4.73248 85.3895 4.93157 85.6439C4.97679 85.6068 5.02435 85.5743 5.07365 85.5464C5.3369 85.3973 5.65002 85.3785 5.92404 85.4834M4.78627 83.9617C4.93064 84.0324 5.06 84.139 5.15987 84.2791C5.34266 84.5354 5.53123 84.7878 5.72552 85.0359C5.83146 85.1711 5.89705 85.3251 5.92404 85.4834M5.92404 85.4834C5.97337 85.7726 5.89384 86.076 5.69623 86.305C5.65919 86.3479 5.618 86.3883 5.57274 86.4254C5.78294 86.6698 5.99883 86.9097 6.22037 87.1449C6.26323 87.1026 6.309 87.0649 6.35705 87.0319C6.60488 86.8615 6.91323 86.8151 7.19426 86.894M5.92404 85.4834C6.07396 85.5408 6.21217 85.6352 6.32413 85.7654C6.52911 86.004 6.73972 86.238 6.95589 86.4673C7.07354 86.5921 7.15285 86.7392 7.19426 86.894M7.19426 86.894C7.26968 87.176 7.21935 87.4837 7.04588 87.7294C7.01223 87.777 6.97395 87.8223 6.93107 87.8647C7.16262 88.0883 7.39967 88.307 7.64217 88.5206C7.6816 88.4736 7.72449 88.4311 7.77017 88.3932C8.00072 88.2018 8.30231 88.1275 8.58855 88.1797M7.19426 86.894C7.34853 86.9374 7.49456 87.0185 7.61785 87.1377C7.84369 87.356 8.07498 87.5694 8.31167 87.7777C8.44026 87.8908 8.53287 88.0296 8.58855 88.1797M8.58855 88.1797C8.68976 88.4525 8.66899 88.7624 8.52071 89.0227C8.49131 89.0743 8.45691 89.1239 8.41745 89.1709C8.66869 89.3716 8.92522 89.5669 9.18697 89.7567C9.2211 89.7071 9.25896 89.6616 9.29992 89.6201C9.51139 89.4063 9.80557 89.3028 10.0965 89.3277M8.58855 88.1797C8.74599 88.2084 8.89878 88.2755 9.03255 88.3824C9.2774 88.5781 9.5275 88.7686 9.78279 88.9535C9.92153 89.054 10.0268 89.1835 10.0965 89.3277M10.0965 89.3277C10.2234 89.5905 10.2316 89.9023 10.1072 90.1761C10.0831 90.2291 10.0541 90.2808 10.0199 90.3304C10.289 90.5062 10.5632 90.6764 10.8423 90.8407C10.8705 90.7901 10.9024 90.7429 10.9375 90.6992C11.1276 90.4631 11.4124 90.3302 11.7063 90.3271M10.0965 89.3277C10.256 89.3413 10.4145 89.3935 10.5578 89.4873C10.8196 89.6585 11.0864 89.8242 11.3582 89.984C11.506 90.071 11.6233 90.19 11.7063 90.3271M11.7063 90.3271C11.8586 90.5785 11.8957 90.8906 11.7952 91.1766C11.7766 91.2295 11.7533 91.2815 11.7252 91.332C12.0098 91.4815 12.2992 91.6251 12.5933 91.7626C12.6153 91.7125 12.6409 91.6651 12.6697 91.6205C12.836 91.3632 13.1092 91.201 13.4042 91.1697M11.7063 90.3271C11.8666 90.3254 12.0295 90.3623 12.1814 90.4421C12.4577 90.5874 12.7388 90.7269 13.0246 90.8603C13.1803 90.933 13.3085 91.0407 13.4042 91.1697M13.4042 91.1697C13.5811 91.4079 13.6469 91.7188 13.5703 92.0155C13.557 92.0668 13.5395 92.1177 13.5175 92.1678C13.815 92.2898 14.1169 92.4058 14.4234 92.5155C14.4395 92.4669 14.459 92.4203 14.4816 92.3759C14.6222 92.0996 14.8814 91.9095 15.1751 91.8501M13.4042 91.1697C13.5639 91.1527 13.73 91.174 13.889 91.2393C14.1773 91.3577 14.4701 91.4702 14.7674 91.5765C14.9297 91.6345 15.0677 91.7301 15.1751 91.8501M15.1751 91.8501C15.3751 92.0733 15.4692 92.3807 15.4166 92.6864C15.4082 92.7354 15.396 92.7843 15.3799 92.8329C15.6873 92.927 15.9988 93.015 16.3146 93.0966C16.3257 93.0491 16.34 93.0032 16.3573 92.959C16.4715 92.6679 16.7138 92.4527 17.0031 92.3664M15.1751 91.8501C15.3329 91.8182 15.5008 91.824 15.6656 91.8745C15.9632 91.9658 16.2652 92.051 16.5714 92.1301C16.7386 92.1733 16.8851 92.2563 17.0031 92.3664M17.0031 92.3664C17.2238 92.5724 17.3452 92.873 17.3178 93.1846C17.3137 93.2318 17.3061 93.2792 17.295 93.3266C17.6092 93.393 17.9273 93.4532 18.2491 93.507C18.2562 93.4586 18.2666 93.4114 18.2801 93.3657C18.369 93.066 18.5919 92.8311 18.8725 92.7204M17.0031 92.3664C17.1578 92.3203 17.3259 92.311 17.495 92.3468C17.7998 92.4113 18.1085 92.4697 18.4211 92.5219C18.5918 92.5504 18.7452 92.6207 18.8725 92.7204M18.8725 92.7204C19.11 92.9064 19.2568 93.1953 19.2565 93.5079C19.2564 93.5555 19.253 93.6036 19.2459 93.652C19.564 93.6914 19.8855 93.7247 20.2106 93.7518C20.2139 93.6987 20.2213 93.6469 20.2326 93.5965C20.2995 93.2956 20.5012 93.0479 20.7688 92.9166M18.8725 92.7204C19.0229 92.661 19.19 92.6374 19.3619 92.6587C19.6717 92.6972 19.9852 92.7296 20.3023 92.756C20.4749 92.7703 20.6336 92.8277 20.7688 92.9166M20.7688 92.9166C20.8569 92.9746 20.935 93.0461 21.0004 93.1278C21.0727 93.055 21.1557 92.9937 21.2462 92.9462C21.3884 92.8714 21.5492 92.8305 21.7161 92.8315M20.7688 92.9166C20.9141 92.8453 21.0788 92.8083 21.2519 92.8158C21.4058 92.8225 21.5605 92.8277 21.7161 92.8315M21.7161 92.8315C21.7222 92.8317 21.7284 92.8318 21.7346 92.832C21.7622 92.8326 21.7895 92.8344 21.8164 92.8372M21.7161 92.8315C21.7493 92.8317 21.7829 92.8336 21.8164 92.8372M21.8164 92.8372C21.8462 92.8404 21.876 92.845 21.906 92.8509C21.9936 92.8683 22.0762 92.8967 22.1527 92.9343C22.0495 92.8835 21.9362 92.8498 21.8164 92.8372ZM22.7048 93.9423C22.7079 93.9137 22.7099 93.8847 22.7106 93.8554C22.7127 93.7683 22.7035 93.6835 22.6845 93.6024C22.7102 93.7113 22.7179 93.826 22.7048 93.9423ZM22.7048 93.9423C22.7016 93.9704 22.6973 93.9986 22.6917 94.0268C22.6904 94.033 22.6892 94.0391 22.688 94.0453M22.7048 93.9423C22.701 93.9772 22.6953 94.0116 22.688 94.0453M22.688 94.0453C22.6518 94.2116 22.5744 94.3621 22.4673 94.4858C22.3982 94.5656 22.3168 94.6343 22.2261 94.6889C22.2954 94.7717 22.3512 94.8655 22.3909 94.9668M22.688 94.0453C22.6572 94.2005 22.6281 94.3553 22.6006 94.5096C22.5697 94.6836 22.4954 94.839 22.3909 94.9668M22.3909 94.9668C22.1729 95.2333 21.8233 95.3794 21.4606 95.3221C21.4602 95.325 21.4598 95.328 21.4594 95.3309C21.4137 95.6661 21.3753 95.9993 21.3442 96.3304C21.3439 96.3336 21.3436 96.3368 21.3433 96.34C21.7093 96.3663 22.0167 96.5875 22.1688 96.8964M22.3909 94.9668C22.4511 95.1203 22.4741 95.291 22.4502 95.466C22.4064 95.7875 22.3696 96.1069 22.3398 96.4241C22.3232 96.5998 22.2622 96.7606 22.1688 96.8964M22.1688 96.8964C21.9737 97.1801 21.6376 97.3546 21.2716 97.3278C21.2714 97.331 21.2712 97.3341 21.2711 97.3373C21.2539 97.675 21.2442 98.0102 21.2418 98.3431C21.2418 98.3461 21.2418 98.3492 21.2417 98.3522C21.6087 98.3464 21.9344 98.5399 22.1129 98.8345M22.1688 96.8964C22.2416 97.0442 22.2787 97.212 22.2698 97.3882C22.2533 97.7113 22.244 98.032 22.2418 98.3502C22.2405 98.5263 22.1938 98.6914 22.1129 98.8345M22.1129 98.8345C21.9435 99.1343 21.6238 99.3376 21.2568 99.343C21.2569 99.346 21.257 99.3491 21.2571 99.3521C21.2699 99.6899 21.2902 100.025 21.3178 100.357C21.3181 100.36 21.3183 100.363 21.3185 100.365C21.6836 100.326 22.0258 100.49 22.2303 100.767M22.1129 98.8345C22.1981 98.975 22.2498 99.1386 22.2564 99.3145C22.2686 99.6371 22.288 99.9571 22.3144 100.274C22.329 100.449 22.2976 100.618 22.2303 100.767M22.2303 100.767C22.0888 101.081 21.7887 101.313 21.4236 101.352C21.4239 101.354 21.4243 101.357 21.4246 101.36C21.4682 101.695 21.5193 102.027 21.5778 102.356C21.5782 102.359 21.5786 102.361 21.579 102.363C21.9391 102.29 22.2952 102.421 22.5246 102.679M22.2303 100.767C22.3275 100.899 22.3936 101.057 22.4163 101.231C22.4578 101.551 22.5066 101.868 22.5624 102.181C22.593 102.354 22.5775 102.524 22.5246 102.679M22.5246 102.679C22.4132 103.005 22.1358 103.264 21.7757 103.337C21.7762 103.339 21.7767 103.341 21.7772 103.343C21.8519 103.673 21.9341 103.999 22.0235 104.322C22.024 104.324 22.0245 104.326 22.025 104.328C22.3768 104.221 22.7439 104.318 22.9966 104.553M22.5246 102.679C22.6334 102.801 22.7138 102.951 22.7525 103.122C22.8237 103.437 22.902 103.748 22.9872 104.055C23.0339 104.224 23.0345 104.394 22.9966 104.553M22.9966 104.553C22.9166 104.889 22.6648 105.173 22.3129 105.279C22.3135 105.281 22.3141 105.283 22.3147 105.285C22.4202 105.606 22.5329 105.923 22.6526 106.237C22.6533 106.239 22.654 106.24 22.6547 106.242C22.9948 106.103 23.3694 106.165 23.6432 106.375M22.9966 104.553C23.1162 104.664 23.2102 104.806 23.2647 104.973C23.3653 105.279 23.4727 105.581 23.5868 105.88C23.6492 106.043 23.6659 106.213 23.6432 106.375M23.6432 106.375C23.5952 106.717 23.3715 107.023 23.0312 107.162C23.0319 107.164 23.0327 107.166 23.0335 107.168C23.1687 107.477 23.3108 107.782 23.4595 108.083C23.4606 108.086 23.4616 108.088 23.4627 108.09C23.788 107.919 24.1665 107.946 24.4587 108.129M23.6432 106.375C23.7728 106.474 23.8798 106.607 23.9499 106.767C24.0787 107.062 24.2142 107.353 24.356 107.64C24.4337 107.797 24.4662 107.965 24.4587 108.129M24.4587 108.129C24.4427 108.473 24.2488 108.799 23.9232 108.969C23.9244 108.971 23.9255 108.974 23.9267 108.976C24.0899 109.27 24.2596 109.561 24.4356 109.846C24.437 109.849 24.4384 109.851 24.4398 109.853C24.7478 109.653 25.1269 109.645 25.4347 109.8M24.4587 108.129C24.5974 108.216 24.7167 108.338 24.8016 108.491C24.9572 108.772 25.1191 109.049 25.2871 109.322C25.3791 109.472 25.4271 109.636 25.4347 109.8M25.4347 109.8C25.4505 110.144 25.2875 110.486 24.9793 110.686C24.9808 110.688 24.9823 110.69 24.9838 110.692C25.1732 110.97 25.3687 111.244 25.57 111.512C25.5717 111.514 25.5734 111.517 25.5751 111.519C25.8636 111.292 26.2402 111.249 26.5607 111.375M25.4347 109.8C25.5811 109.873 25.7114 109.984 25.8103 110.129C25.9911 110.395 26.1777 110.656 26.37 110.912C26.4755 111.053 26.5383 111.212 26.5607 111.375M26.5607 111.375C26.6077 111.716 26.4765 112.072 26.1877 112.299C26.1895 112.301 26.1914 112.303 26.1932 112.305C26.4068 112.565 26.626 112.819 26.8506 113.069C26.8526 113.071 26.8546 113.073 26.8565 113.075C27.1236 112.823 27.4947 112.747 27.8252 112.844M26.5607 111.375C26.7135 111.435 26.8536 111.534 26.9653 111.67C27.1694 111.918 27.379 112.161 27.5936 112.399C27.7114 112.53 27.7883 112.683 27.8252 112.844M27.8252 112.844C27.9023 113.179 27.8035 113.545 27.5361 113.797C27.5382 113.799 27.5402 113.801 27.5423 113.803C27.7782 114.043 28.0192 114.277 28.265 114.506C28.2671 114.507 28.2691 114.509 28.2711 114.511C28.5152 114.237 28.8782 114.128 29.216 114.196M27.8252 112.844C27.9829 112.89 28.1314 112.976 28.2549 113.101C28.4805 113.331 28.711 113.555 28.9462 113.773C29.0751 113.893 29.1652 114.039 29.216 114.196M29.216 114.196C29.3224 114.523 29.2561 114.897 29.0117 115.171C29.0139 115.173 29.016 115.174 29.0181 115.176C29.2741 115.394 29.5347 115.607 29.7995 115.813C29.8017 115.815 29.8038 115.817 29.8059 115.818C30.0253 115.524 30.3776 115.384 30.72 115.422M29.216 114.196C29.3772 114.228 29.5326 114.301 29.6667 114.415C29.9116 114.624 30.161 114.827 30.4145 115.025C30.5534 115.133 30.6559 115.271 30.72 115.422M30.72 115.422C30.8545 115.739 30.8208 116.117 30.6011 116.411C30.6033 116.413 30.6055 116.414 30.6076 116.416C30.8815 116.611 31.1595 116.8 31.4412 116.983C31.4435 116.985 31.4457 116.986 31.4479 116.988C31.6412 116.675 31.9802 116.506 32.3247 116.514M30.72 115.422C30.8835 115.44 31.0446 115.499 31.1881 115.602C31.4502 115.788 31.7164 115.97 31.9861 116.145C32.1338 116.241 32.2477 116.369 32.3247 116.514M32.3247 116.514C32.486 116.819 32.4848 117.198 32.2912 117.51C32.2935 117.512 32.2957 117.513 32.298 117.514C32.5877 117.685 32.8808 117.85 33.1773 118.008C33.1797 118.01 33.1821 118.011 33.1845 118.012C33.3502 117.684 33.6734 117.486 34.0173 117.465M32.3247 116.514C32.4891 116.519 32.6547 116.564 32.8064 116.653C33.0837 116.817 33.3644 116.975 33.6482 117.126C33.8036 117.209 33.9282 117.327 34.0173 117.465M34.0173 117.465C34.2041 117.755 34.2354 118.133 34.0693 118.46C34.0717 118.462 34.0742 118.463 34.0766 118.464C34.3798 118.609 34.686 118.748 34.9949 118.88C34.9974 118.881 34.9999 118.883 35.0025 118.884C35.1394 118.543 35.4441 118.317 35.785 118.267M34.0173 117.465C34.1815 117.456 34.3504 117.486 34.5092 117.562C34.7994 117.702 35.0925 117.834 35.3881 117.961C35.5501 118.03 35.6843 118.137 35.785 118.267M35.785 118.267C35.996 118.539 36.0598 118.913 35.9225 119.254C35.9251 119.255 35.9277 119.256 35.9303 119.257C36.2448 119.375 36.5618 119.487 36.881 119.592C36.8837 119.593 36.8863 119.594 36.889 119.594C36.9955 119.243 37.2794 118.992 37.6146 118.912M35.785 118.267C35.9477 118.243 36.1185 118.259 36.2833 118.321C36.5842 118.435 36.8875 118.542 37.1928 118.642C37.36 118.697 37.503 118.791 37.6146 118.912M37.6146 118.912C37.8485 119.165 37.9447 119.532 37.8377 119.883C37.8404 119.884 37.8431 119.884 37.8458 119.885C38.1695 119.976 38.4951 120.059 38.8224 120.135C38.8251 120.136 38.8278 120.136 38.8305 120.137C38.9053 119.778 39.1658 119.502 39.4925 119.393M37.6146 118.912C37.7744 118.874 37.9459 118.875 38.1154 118.922C38.4249 119.009 38.7361 119.088 39.0488 119.161C39.22 119.201 39.3707 119.283 39.4925 119.393M39.4925 119.393C39.7481 119.624 39.8765 119.98 39.8012 120.34C39.804 120.34 39.8067 120.341 39.8094 120.341C40.1399 120.403 40.4717 120.456 40.8046 120.502C40.8073 120.503 40.81 120.503 40.8127 120.504C40.8545 120.139 41.0887 119.841 41.4042 119.702M39.4925 119.393C39.6481 119.34 39.8188 119.326 39.9917 119.358C40.3073 119.417 40.6241 119.468 40.9418 119.512C41.1157 119.536 41.273 119.603 41.4042 119.702M41.4042 119.702C41.6798 119.909 41.8402 120.252 41.798 120.617C41.8007 120.617 41.8035 120.617 41.8062 120.618C42.1407 120.648 42.4761 120.671 42.8119 120.686C42.8147 120.686 42.8176 120.686 42.8205 120.687C42.8279 120.32 43.0331 120.001 43.3341 119.833M41.4042 119.702C41.5542 119.636 41.7227 119.606 41.8975 119.622C42.2166 119.651 42.5363 119.673 42.8564 119.687C43.0317 119.695 43.1944 119.747 43.3341 119.833M43.3341 119.833C43.6278 120.013 43.8195 120.34 43.8116 120.707C43.8145 120.707 43.8174 120.707 43.8203 120.707C44.1558 120.706 44.4917 120.697 44.8274 120.68C44.8302 120.68 44.833 120.68 44.8358 120.68C44.8079 120.314 44.9816 119.977 45.2651 119.781M43.3341 119.833C43.4771 119.753 43.6419 119.708 43.8173 119.707C44.1369 119.706 44.4567 119.698 44.7763 119.681C44.9513 119.672 45.1181 119.709 45.2651 119.781M45.2651 119.781C45.5749 119.932 45.7972 120.239 45.8246 120.605C45.8274 120.605 45.8302 120.604 45.833 120.604C46.1667 120.571 46.5002 120.529 46.833 120.479C46.8356 120.479 46.8381 120.478 46.8407 120.478C46.7769 120.116 46.9167 119.764 47.1798 119.541M45.2651 119.781C45.3997 119.688 45.559 119.626 45.7333 119.609C46.0508 119.577 46.368 119.538 46.6845 119.49C46.8574 119.464 47.0266 119.484 47.1798 119.541M47.1798 119.541C47.5031 119.661 47.7547 119.944 47.818 120.306C47.8205 120.306 47.823 120.305 47.8256 120.305C48.1545 120.238 48.4825 120.164 48.8094 120.081C48.8115 120.08 48.8136 120.079 48.8157 120.079C48.716 119.725 48.82 119.36 49.0598 119.112M47.1798 119.541C47.3044 119.435 47.4566 119.359 47.628 119.324C47.9406 119.261 48.2523 119.19 48.563 119.111C48.7321 119.068 48.9021 119.071 49.0598 119.112M49.0598 119.112C49.3938 119.199 49.6729 119.456 49.7721 119.81C49.7742 119.809 49.7762 119.809 49.7783 119.808C50.0991 119.709 50.4186 119.602 50.7365 119.486C50.738 119.485 50.7394 119.484 50.7408 119.484C50.6059 119.142 50.6728 118.768 50.887 118.497M49.0598 119.112C49.1731 118.995 49.3167 118.904 49.4834 118.852C49.7882 118.758 50.0917 118.656 50.3937 118.546C50.5572 118.486 50.7262 118.472 50.887 118.497M50.887 118.497C51.2284 118.549 51.5325 118.777 51.667 119.119C51.6684 119.119 51.6698 119.118 51.6712 119.117C51.9798 118.987 52.2866 118.848 52.5913 118.7C52.5931 118.7 52.5948 118.699 52.5965 118.698C52.4281 118.371 52.4571 117.993 52.6426 117.702M50.887 118.497C50.9878 118.369 51.1212 118.264 51.2816 118.196C51.5747 118.072 51.8662 117.94 52.1558 117.8C52.3128 117.724 52.4799 117.693 52.6426 117.702M52.6426 117.702C52.9873 117.72 53.3124 117.916 53.4805 118.243C53.4822 118.242 53.4838 118.241 53.4855 118.24C53.7788 118.08 54.0698 117.911 54.3585 117.734C54.3606 117.733 54.3627 117.732 54.3648 117.73C54.1651 117.422 54.1566 117.043 54.3121 116.735M52.6426 117.702C52.7302 117.564 52.8527 117.446 53.0058 117.363C53.2846 117.21 53.5614 117.05 53.836 116.882C53.9852 116.79 54.1489 116.743 54.3121 116.735M54.3121 116.735C54.6566 116.719 54.999 116.883 55.1983 117.191C55.2003 117.19 55.2023 117.189 55.2044 117.187C55.4798 116.999 55.7527 116.804 56.023 116.6C56.0253 116.598 56.0277 116.596 56.03 116.595C55.8021 116.307 55.7575 115.931 55.8826 115.61M54.3121 116.735C54.3859 116.589 54.4965 116.459 54.6411 116.361C54.9034 116.182 55.1634 115.996 55.421 115.801C55.5612 115.696 55.7203 115.633 55.8826 115.61M55.8826 115.61C56.2238 115.562 56.5798 115.692 56.8073 115.98C56.8096 115.978 56.8119 115.976 56.8141 115.974C57.07 115.762 57.3233 115.542 57.5736 115.314C57.576 115.312 57.5784 115.31 57.5807 115.308C57.3277 115.042 57.2491 114.671 57.3444 114.34M55.8826 115.61C55.9422 115.457 56.0404 115.317 56.1755 115.204C56.4198 115.002 56.6616 114.792 56.9008 114.574C57.0311 114.456 57.1842 114.378 57.3444 114.34M57.3444 114.34C57.6796 114.262 58.0457 114.359 58.2984 114.625C58.3007 114.623 58.3029 114.62 58.3052 114.618C58.5408 114.384 58.7736 114.143 59.0033 113.894C59.0054 113.892 59.0074 113.89 59.0094 113.887C58.7344 113.644 58.6245 113.281 58.6913 112.944M57.3444 114.34C57.39 114.182 57.4753 114.033 57.6003 113.909C57.8257 113.685 58.0486 113.454 58.2688 113.215C58.3885 113.086 58.5347 112.995 58.6913 112.944M58.6913 112.944C58.7948 112.91 58.9029 112.893 59.011 112.894C58.9953 112.789 58.9964 112.683 59.0138 112.579C59.0409 112.418 59.1075 112.262 59.212 112.129M58.6913 112.944C58.7234 112.782 58.7959 112.626 58.9103 112.491C59.0115 112.372 59.112 112.251 59.212 112.129M59.212 112.129C59.2162 112.124 59.2205 112.118 59.2248 112.113C59.2458 112.087 59.2677 112.063 59.2906 112.04M59.212 112.129C59.2361 112.098 59.2624 112.068 59.2906 112.04M59.2906 112.04C59.315 112.016 59.3408 111.992 59.3682 111.97C59.4324 111.917 59.5012 111.874 59.5729 111.84C59.47 111.889 59.3742 111.956 59.2906 112.04ZM60.7094 112.04C60.685 112.016 60.6591 111.992 60.6318 111.97C60.5675 111.917 60.4988 111.874 60.4271 111.84C60.5299 111.889 60.6257 111.956 60.7094 112.04ZM60.7094 112.04C60.7322 112.063 60.7542 112.087 60.7751 112.113C60.7794 112.118 60.7837 112.124 60.788 112.129M60.7094 112.04C60.7376 112.068 60.7638 112.098 60.788 112.129M60.788 112.129C60.8925 112.262 60.9591 112.418 60.9862 112.579C61.0036 112.683 61.0047 112.789 60.989 112.894C61.0971 112.893 61.2051 112.91 61.3086 112.944M60.788 112.129C60.8879 112.251 60.9885 112.372 61.0897 112.491C61.2041 112.626 61.2766 112.782 61.3086 112.944M61.3086 112.944C61.3755 113.281 61.2655 113.644 60.9906 113.887C60.9926 113.89 60.9946 113.892 60.9966 113.894C61.2264 114.143 61.4591 114.384 61.6947 114.618C61.697 114.62 61.6993 114.623 61.7015 114.625C61.9542 114.359 62.3203 114.262 62.6556 114.34M61.3086 112.944C61.4653 112.995 61.6114 113.086 61.7312 113.215C61.9514 113.454 62.1742 113.685 62.3997 113.909C62.5247 114.033 62.61 114.182 62.6556 114.34M62.6556 114.34C62.7509 114.671 62.6723 115.042 62.4192 115.308C62.4216 115.31 62.424 115.312 62.4263 115.314C62.6767 115.542 62.9299 115.762 63.1858 115.974C63.1881 115.976 63.1904 115.978 63.1926 115.98C63.4202 115.692 63.7762 115.562 64.1173 115.61M62.6556 114.34C62.8157 114.378 62.9688 114.456 63.0992 114.574C63.3384 114.792 63.5802 115.002 63.8244 115.204C63.9596 115.317 64.0577 115.457 64.1173 115.61M64.1173 115.61C64.2425 115.931 64.1978 116.307 63.9699 116.595C63.9723 116.596 63.9746 116.598 63.977 116.6C64.2473 116.804 64.5202 116.999 64.7956 117.187C64.7976 117.189 64.7997 117.19 64.8017 117.191C65.0009 116.883 65.3433 116.719 65.6878 116.735M64.1173 115.61C64.2797 115.633 64.4387 115.696 64.5789 115.801C64.8365 115.996 65.0966 116.182 65.3588 116.361C65.5034 116.459 65.6141 116.589 65.6878 116.735M65.6878 116.735C65.8434 117.043 65.8348 117.422 65.6352 117.73C65.6373 117.732 65.6394 117.733 65.6415 117.734C65.9301 117.911 66.2212 118.08 66.5144 118.24C66.5161 118.241 66.5178 118.242 66.5195 118.243C66.6876 117.916 67.0126 117.72 67.3573 117.702M65.6878 116.735C65.851 116.743 66.0148 116.79 66.164 116.882C66.4386 117.05 66.7154 117.21 66.9942 117.363C67.1473 117.446 67.2698 117.564 67.3573 117.702M67.3573 117.702C67.5429 117.993 67.5719 118.371 67.4034 118.698C67.4052 118.699 67.4069 118.7 67.4086 118.7C67.7134 118.848 68.0201 118.987 68.3287 119.117C68.3301 119.118 68.3315 119.119 68.3329 119.119C68.4675 118.777 68.7715 118.549 69.113 118.497M67.3573 117.702C67.5201 117.693 67.6871 117.724 67.8441 117.8C68.1337 117.94 68.4252 118.072 68.7184 118.196C68.8787 118.264 69.0122 118.369 69.113 118.497M69.113 118.497C69.3271 118.768 69.3941 119.142 69.2591 119.484C69.2606 119.484 69.262 119.485 69.2634 119.486C69.5813 119.602 69.9008 119.709 70.2217 119.808C70.2237 119.809 70.2258 119.809 70.2279 119.81C70.3271 119.456 70.6061 119.199 70.9401 119.112M69.113 118.497C69.2737 118.472 69.4427 118.486 69.6063 118.546C69.9083 118.656 70.2118 118.758 70.5166 118.852C70.6833 118.904 70.8268 118.995 70.9401 119.112M70.9401 119.112C71.18 119.36 71.284 119.725 71.1843 120.079C71.1864 120.079 71.1885 120.08 71.1906 120.08C71.5175 120.164 71.8455 120.238 72.1744 120.305C72.1769 120.305 72.1794 120.306 72.182 120.306C72.2453 119.944 72.4969 119.661 72.8202 119.541M70.9401 119.112C71.0979 119.071 71.2679 119.068 71.437 119.111C71.7476 119.19 72.0593 119.261 72.3719 119.324C72.5433 119.359 72.6956 119.435 72.8202 119.541M72.8202 119.541C73.0833 119.764 73.2231 120.116 73.1593 120.478C73.1618 120.478 73.1644 120.479 73.1669 120.479C73.4998 120.529 73.8332 120.571 74.167 120.604C74.1698 120.604 74.1726 120.605 74.1754 120.605C74.2028 120.239 74.4251 119.932 74.7349 119.781M72.8202 119.541C72.9733 119.484 73.1426 119.464 73.3155 119.49C73.632 119.538 73.9491 119.577 74.2667 119.609C74.4409 119.626 74.6003 119.688 74.7349 119.781M74.7349 119.781C75.0184 119.977 75.192 120.314 75.1641 120.68C75.1669 120.68 75.1697 120.68 75.1725 120.68C75.5083 120.697 75.8441 120.706 76.1797 120.707C76.1826 120.707 76.1854 120.707 76.1883 120.707C76.1804 120.34 76.3722 120.013 76.6659 119.833M74.7349 119.781C74.8819 119.709 75.0487 119.672 75.2236 119.681C75.5432 119.698 75.863 119.706 76.1827 119.707C76.3581 119.708 76.5228 119.753 76.6659 119.833M76.6659 119.833C76.9669 120.001 77.1721 120.32 77.1795 120.687C77.1824 120.686 77.1852 120.686 77.1881 120.686C77.5239 120.671 77.8592 120.648 78.1938 120.618C78.1965 120.617 78.1992 120.617 78.202 120.617C78.1598 120.252 78.3202 119.909 78.5958 119.702M76.6659 119.833C76.8056 119.747 76.9683 119.695 77.1436 119.687C77.4637 119.673 77.7834 119.651 78.1025 119.622C78.2773 119.606 78.4458 119.636 78.5958 119.702M78.5958 119.702C78.9113 119.841 79.1455 120.139 79.1872 120.504C79.19 120.503 79.1927 120.503 79.1954 120.502C79.5283 120.456 79.8601 120.403 80.1906 120.341C80.1933 120.341 80.196 120.34 80.1987 120.34C80.1235 119.98 80.2519 119.624 80.5075 119.393M78.5958 119.702C78.727 119.603 78.8842 119.536 79.0582 119.512C79.3759 119.468 79.6927 119.417 80.0083 119.358C80.1811 119.326 80.3518 119.34 80.5075 119.393M80.5075 119.393C80.8342 119.502 81.0947 119.778 81.1695 120.137C81.1722 120.136 81.1749 120.136 81.1776 120.135C81.5048 120.059 81.8304 119.976 82.1541 119.885C82.1568 119.884 82.1595 119.884 82.1622 119.883C82.0553 119.532 82.1514 119.165 82.3854 118.912M80.5075 119.393C80.6293 119.283 80.7799 119.201 80.9512 119.161C81.2639 119.088 81.5751 119.009 81.8846 118.922C82.054 118.875 82.2255 118.874 82.3854 118.912M82.3854 118.912C82.7205 118.992 83.0044 119.243 83.111 119.594C83.1136 119.594 83.1163 119.593 83.119 119.592C83.4382 119.487 83.7551 119.375 84.0697 119.257C84.0723 119.256 84.0748 119.255 84.0774 119.254C83.9402 118.913 84.004 118.539 84.215 118.267M82.3854 118.912C82.497 118.791 82.64 118.697 82.8072 118.642C83.1125 118.542 83.4157 118.435 83.7167 118.321C83.8814 118.259 84.0523 118.243 84.215 118.267M84.215 118.267C84.5558 118.317 84.8606 118.543 84.9975 118.884C85 118.883 85.0025 118.881 85.0051 118.88C85.314 118.748 85.6202 118.609 85.9234 118.464C85.9258 118.463 85.9282 118.462 85.9307 118.46C85.7645 118.133 85.7959 117.755 85.9826 117.465M84.215 118.267C84.3157 118.137 84.4499 118.03 84.6118 117.961C84.9075 117.834 85.2005 117.702 85.4908 117.562C85.6496 117.486 85.8185 117.456 85.9826 117.465M85.9826 117.465C86.3266 117.486 86.6497 117.684 86.8155 118.012C86.8179 118.011 86.8203 118.01 86.8227 118.008C87.1191 117.85 87.4123 117.685 87.702 117.514C87.7042 117.513 87.7065 117.512 87.7088 117.51C87.5151 117.198 87.514 116.819 87.6753 116.514M85.9826 117.465C86.0718 117.327 86.1963 117.209 86.3517 117.126C86.6355 116.975 86.9162 116.817 87.1936 116.653C87.3452 116.564 87.5109 116.519 87.6753 116.514M87.6753 116.514C88.0198 116.506 88.3588 116.675 88.5521 116.988C88.5543 116.986 88.5565 116.985 88.5587 116.983C88.8405 116.8 89.1184 116.611 89.3923 116.416C89.3945 116.414 89.3967 116.413 89.3989 116.411C89.1792 116.117 89.1454 115.739 89.2799 115.422M87.6753 116.514C87.7522 116.369 87.8662 116.241 88.0138 116.145C88.2836 115.97 88.5497 115.788 88.8119 115.602C88.9553 115.499 89.1165 115.44 89.2799 115.422M89.2799 115.422C89.6224 115.384 89.9747 115.524 90.1941 115.818C90.1962 115.817 90.1983 115.815 90.2004 115.813C90.4653 115.607 90.7259 115.394 90.9819 115.176C90.984 115.174 90.9861 115.173 90.9882 115.171C90.7439 114.897 90.6775 114.523 90.784 114.196M89.2799 115.422C89.3441 115.271 89.4466 115.133 89.5854 115.025C89.839 114.827 90.0883 114.624 90.3333 114.415C90.4673 114.301 90.6228 114.228 90.784 114.196M90.784 114.196C91.1218 114.128 91.4848 114.237 91.7288 114.511C91.7309 114.509 91.7329 114.507 91.735 114.506C91.9808 114.277 92.2218 114.043 92.4577 113.803C92.4597 113.801 92.4618 113.799 92.4639 113.797C92.1965 113.545 92.0976 113.179 92.1748 112.844M90.784 114.196C90.8348 114.039 90.9249 113.893 91.0538 113.773C91.289 113.555 91.5195 113.331 91.7451 113.101C91.8686 112.976 92.0171 112.89 92.1748 112.844M92.1748 112.844C92.5053 112.747 92.8764 112.823 93.1434 113.075C93.1454 113.073 93.1474 113.071 93.1494 113.069C93.3739 112.819 93.5932 112.565 93.8068 112.305C93.8086 112.303 93.8104 112.301 93.8122 112.299C93.5235 112.072 93.3923 111.716 93.4393 111.375M92.1748 112.844C92.2116 112.683 92.2885 112.53 92.4063 112.399C92.621 112.161 92.8305 111.918 93.0347 111.67C93.1464 111.534 93.2865 111.435 93.4393 111.375M93.4393 111.375C93.7598 111.249 94.1363 111.292 94.4248 111.519C94.4265 111.517 94.4283 111.514 94.43 111.512C94.6313 111.244 94.8268 110.97 95.0162 110.692C95.0177 110.69 95.0192 110.688 95.0207 110.686C94.7124 110.486 94.5495 110.144 94.5653 109.8M93.4393 111.375C93.4616 111.212 93.5245 111.053 93.63 110.912C93.8222 110.656 94.0089 110.395 94.1897 110.129C94.2885 109.984 94.4189 109.873 94.5653 109.8M94.5653 109.8C94.8731 109.645 95.2521 109.653 95.5602 109.853C95.5616 109.851 95.563 109.849 95.5644 109.846C95.7404 109.561 95.9101 109.27 96.0733 108.976C96.0744 108.974 96.0756 108.971 96.0768 108.969C95.7512 108.799 95.5572 108.473 95.5413 108.129M94.5653 109.8C94.5728 109.636 94.6208 109.472 94.7129 109.322C94.8808 109.049 95.0427 108.772 95.1984 108.491C95.2833 108.338 95.4026 108.216 95.5413 108.129M95.5413 108.129C95.8335 107.946 96.2119 107.919 96.5373 108.09C96.5383 108.088 96.5394 108.086 96.5405 108.083C96.6892 107.782 96.8313 107.477 96.9665 107.168C96.9672 107.166 96.968 107.164 96.9688 107.162C96.6285 107.023 96.4047 106.717 96.3568 106.375M95.5413 108.129C95.5337 107.965 95.5663 107.797 95.6439 107.64C95.7858 107.353 95.9212 107.062 96.0501 106.767C96.1201 106.607 96.2272 106.474 96.3568 106.375M96.3568 106.375C96.6305 106.165 97.0051 106.103 97.3453 106.242C97.346 106.24 97.3467 106.239 97.3474 106.237C97.4671 105.923 97.5798 105.606 97.6853 105.285C97.6859 105.283 97.6865 105.281 97.6871 105.279C97.3352 105.173 97.0834 104.889 97.0034 104.553M96.3568 106.375C96.3341 106.213 96.3508 106.043 96.4132 105.88C96.5273 105.581 96.6347 105.279 96.7352 104.973C96.7898 104.806 96.8838 104.664 97.0034 104.553M97.0034 104.553C97.2561 104.318 97.6232 104.221 97.975 104.328C97.9755 104.326 97.976 104.324 97.9765 104.322C98.0659 103.999 98.1481 103.673 98.2228 103.343C98.2233 103.341 98.2238 103.339 98.2243 103.337C97.8641 103.264 97.5868 103.005 97.4753 102.679M97.0034 104.553C96.9655 104.394 96.9661 104.224 97.0128 104.055C97.098 103.748 97.1763 103.436 97.2475 103.122C97.2862 102.951 97.3665 102.801 97.4753 102.679M97.4753 102.679C97.7047 102.421 98.0609 102.29 98.421 102.363C98.4214 102.361 98.4218 102.359 98.4221 102.356C98.4806 102.027 98.5318 101.695 98.5753 101.36C98.5757 101.357 98.576 101.354 98.5764 101.352C98.2112 101.313 97.9112 101.081 97.7697 100.767M97.4753 102.679C97.4225 102.524 97.4069 102.354 97.4376 102.181C97.4933 101.868 97.5421 101.551 97.5837 101.231C97.6063 101.057 97.6724 100.899 97.7697 100.767M97.7697 100.767C97.9742 100.49 98.3164 100.326 98.6815 100.365C98.6817 100.363 98.6819 100.36 98.6821 100.357C98.7098 100.025 98.7301 99.6899 98.7428 99.3521C98.743 99.3491 98.7431 99.346 98.7432 99.343C98.3762 99.3376 98.0565 99.1343 97.887 98.8345M97.7697 100.767C97.7024 100.618 97.671 100.449 97.6856 100.274C97.712 99.9571 97.7314 99.6371 97.7435 99.3145C97.7502 99.1386 97.8018 98.975 97.887 98.8345M97.887 98.8345C98.0655 98.5399 98.3913 98.3464 98.7582 98.3522C98.7582 98.3492 98.7582 98.3461 98.7582 98.3431C98.7558 98.0102 98.7461 97.675 98.7289 97.3373C98.7287 97.3342 98.7286 97.3309 98.7284 97.3278C98.3624 97.3546 98.0262 97.18 97.8312 96.8964M97.887 98.8345C97.8061 98.6914 97.7594 98.5263 97.7582 98.3502C97.7559 98.032 97.7467 97.7113 97.7302 97.3882C97.7212 97.212 97.7584 97.0442 97.8312 96.8964M97.8312 96.8964C97.9832 96.5875 98.2907 96.3663 98.6567 96.3399C98.6564 96.3367 98.6561 96.3336 98.6558 96.3304C98.6246 95.9993 98.5863 95.6661 98.5406 95.3309C98.5402 95.328 98.5398 95.325 98.5394 95.3221C98.1767 95.3794 97.8271 95.2333 97.609 94.9668M97.8312 96.8964C97.7378 96.7606 97.6767 96.5998 97.6602 96.4241C97.6304 96.1069 97.5936 95.7875 97.5497 95.466C97.5259 95.291 97.5488 95.1203 97.609 94.9668M97.609 94.9668C97.6487 94.8655 97.7046 94.7717 97.7739 94.6889C97.6832 94.6343 97.6017 94.5656 97.5327 94.4858C97.4257 94.3622 97.3483 94.2119 97.3121 94.0459M97.609 94.9668C97.5046 94.839 97.4303 94.6836 97.3993 94.5096C97.3719 94.3555 97.3428 94.2009 97.3121 94.0459M97.3121 94.0459C97.3108 94.0395 97.3096 94.0332 97.3083 94.0268C97.3024 93.9968 97.2978 93.9669 97.2946 93.9371M97.3121 94.0459C97.3044 94.0104 97.2985 93.974 97.2946 93.9371M97.2946 93.9371C97.2918 93.9102 97.29 93.883 97.2894 93.8554C97.2873 93.7683 97.2964 93.6835 97.3155 93.6024C97.2901 93.7097 97.2823 93.8226 97.2946 93.9371ZM98.1837 92.8372C98.1539 92.8404 98.1239 92.845 98.094 92.8509C98.0064 92.8683 97.9238 92.8967 97.8473 92.9343C97.9505 92.8834 98.0638 92.8498 98.1837 92.8372ZM98.1837 92.8372C98.2106 92.8344 98.2379 92.8326 98.2654 92.832C98.2715 92.8318 98.2777 92.8317 98.2839 92.8315M98.1837 92.8372C98.2172 92.8336 98.2507 92.8317 98.2839 92.8315M98.2839 92.8315C98.4508 92.8305 98.6116 92.8714 98.7538 92.9462C98.8443 92.9938 98.9273 93.055 98.9996 93.1278C99.065 93.0461 99.1431 92.9746 99.2312 92.9166M98.2839 92.8315C98.4395 92.8277 98.5942 92.8225 98.7481 92.8158C98.9212 92.8083 99.086 92.8453 99.2312 92.9166M99.2312 92.9166C99.4988 93.0479 99.7005 93.2956 99.7674 93.5965C99.7787 93.6469 99.7861 93.6987 99.7894 93.7518C100.114 93.7247 100.436 93.6914 100.754 93.652C100.747 93.6036 100.744 93.5555 100.744 93.5079C100.743 93.1953 100.89 92.9064 101.128 92.7204M99.2312 92.9166C99.3664 92.8277 99.5251 92.7703 99.6976 92.756C100.015 92.7296 100.328 92.6972 100.638 92.6587C100.81 92.6374 100.977 92.661 101.128 92.7204M101.128 92.7204C101.408 92.8311 101.631 93.0661 101.72 93.3657C101.733 93.4114 101.744 93.4586 101.751 93.507C102.073 93.4532 102.391 93.3929 102.705 93.3266C102.694 93.2792 102.686 93.2318 102.682 93.1846C102.655 92.873 102.776 92.5724 102.997 92.3664M101.128 92.7204C101.255 92.6207 101.408 92.5504 101.579 92.5219C101.892 92.4697 102.2 92.4112 102.505 92.3468C102.674 92.311 102.842 92.3203 102.997 92.3664M102.997 92.3664C103.286 92.4527 103.529 92.6679 103.643 92.9591C103.66 93.0032 103.674 93.0491 103.685 93.0966C104.001 93.015 104.313 92.927 104.62 92.8329C104.604 92.7843 104.592 92.7354 104.583 92.6863C104.531 92.3807 104.625 92.0733 104.825 91.8501M102.997 92.3664C103.115 92.2563 103.261 92.1733 103.429 92.1301C103.735 92.051 104.037 91.9658 104.334 91.8745C104.499 91.824 104.667 91.8181 104.825 91.8501M104.825 91.8501C105.119 91.9094 105.378 92.0996 105.518 92.3759C105.541 92.4203 105.561 92.4669 105.577 92.5155C105.883 92.4058 106.185 92.2898 106.482 92.1678C106.461 92.1177 106.443 92.0668 106.43 92.0155C106.353 91.7188 106.419 91.4079 106.596 91.1696M104.825 91.8501C104.932 91.7301 105.07 91.6345 105.233 91.5765C105.53 91.4702 105.823 91.3577 106.111 91.2393C106.27 91.174 106.436 91.1527 106.596 91.1696M106.596 91.1696C106.891 91.201 107.164 91.3632 107.33 91.6205C107.359 91.6651 107.385 91.7125 107.407 91.7626C107.701 91.6251 107.99 91.4815 108.275 91.332C108.247 91.2815 108.223 91.2294 108.205 91.1765C108.104 90.8905 108.141 90.5785 108.294 90.3271M106.596 91.1696C106.691 91.0407 106.82 90.933 106.975 90.8603C107.261 90.7269 107.542 90.5874 107.819 90.4421C107.97 90.3623 108.133 90.3254 108.294 90.3271M108.294 90.3271C108.588 90.3302 108.872 90.4631 109.062 90.6992C109.098 90.7429 109.13 90.7901 109.158 90.8407C109.437 90.6764 109.711 90.5062 109.98 90.3303C109.946 90.2808 109.917 90.2291 109.893 90.1761C109.768 89.9023 109.777 89.5905 109.904 89.3276M108.294 90.3271C108.377 90.19 108.494 90.0709 108.642 89.984C108.914 89.8242 109.18 89.6585 109.442 89.4873C109.585 89.3935 109.744 89.3413 109.904 89.3276M109.904 89.3276C110.194 89.3028 110.489 89.4062 110.7 89.6201C110.741 89.6615 110.779 89.7071 110.813 89.7567C111.075 89.5669 111.331 89.3716 111.583 89.1709C111.543 89.1239 111.509 89.0742 111.479 89.0226C111.331 88.7623 111.31 88.4525 111.411 88.1797M109.904 89.3276C109.973 89.1835 110.078 89.054 110.217 88.9535C110.472 88.7686 110.723 88.5781 110.967 88.3824C111.101 88.2755 111.254 88.2084 111.411 88.1797M111.411 88.1797C111.698 88.1275 111.999 88.2018 112.23 88.3932C112.275 88.4311 112.318 88.4736 112.358 88.5206C112.6 88.307 112.837 88.0883 113.069 87.8647C113.026 87.8223 112.988 87.777 112.954 87.7294C112.781 87.4837 112.73 87.176 112.806 86.894M111.411 88.1797C111.467 88.0296 111.56 87.8908 111.688 87.7777C111.925 87.5694 112.156 87.356 112.382 87.1377C112.505 87.0185 112.651 86.9374 112.806 86.894M112.806 86.894C113.087 86.815 113.395 86.8615 113.643 87.0319C113.691 87.0649 113.737 87.1026 113.78 87.1449C114.001 86.9097 114.217 86.6698 114.427 86.4254C114.382 86.3883 114.341 86.3479 114.304 86.305C114.106 86.0759 114.027 85.7726 114.076 85.4834M112.806 86.894C112.847 86.7392 112.926 86.5921 113.044 86.4673C113.26 86.238 113.471 86.004 113.676 85.7654C113.788 85.6351 113.926 85.5408 114.076 85.4834M114.076 85.4834C114.35 85.3785 114.663 85.3973 114.926 85.5464C114.976 85.5743 115.023 85.6068 115.068 85.6439C115.267 85.3895 115.461 85.1308 115.648 84.8682C115.601 84.8358 115.557 84.8 115.517 84.7614C115.298 84.5509 115.191 84.2551 115.214 83.9617M114.076 85.4834C114.103 85.3251 114.169 85.1711 114.274 85.0359C114.469 84.7878 114.657 84.5354 114.84 84.2791C114.94 84.139 115.069 84.0324 115.214 83.9617M115.214 83.9617C115.478 83.8323 115.793 83.8233 116.069 83.9493C116.119 83.9725 116.169 84.0002 116.216 84.0326C116.392 83.7614 116.562 83.4865 116.725 83.2081C116.675 83.1803 116.629 83.1488 116.586 83.1142C116.349 82.9237 116.215 82.638 116.213 82.3434M115.214 83.9617C115.226 83.8015 115.278 83.642 115.371 83.4976C115.543 83.233 115.708 82.9646 115.868 82.6928C115.955 82.5443 116.075 82.4266 116.213 82.3434M116.213 82.3434C116.465 82.1911 116.778 82.1546 117.065 82.2565C117.117 82.275 117.168 82.2981 117.218 82.326C117.369 82.0405 117.514 81.7519 117.653 81.4603C117.601 81.4369 117.552 81.4096 117.506 81.3789C117.253 81.2096 117.096 80.9363 117.068 80.6429M116.213 82.3434C116.211 82.1825 116.249 82.0189 116.329 81.8667C116.477 81.5879 116.619 81.3059 116.755 81.021C116.829 80.8654 116.938 80.7377 117.068 80.6429M117.068 80.6429C117.306 80.4694 117.615 80.406 117.91 80.483C117.963 80.497 118.016 80.5156 118.068 80.539C118.194 80.2417 118.314 79.9418 118.428 79.6394C118.374 79.6205 118.323 79.5975 118.275 79.5708C118.009 79.4235 117.829 79.1644 117.776 78.8743M117.068 80.6429C117.053 80.4825 117.076 80.3162 117.143 80.1575C117.267 79.8669 117.384 79.5736 117.495 79.2779C117.556 79.1164 117.654 78.9799 117.776 78.8743M117.776 78.8743C117.999 78.6813 118.301 78.592 118.601 78.644C118.656 78.6534 118.71 78.6675 118.763 78.6864C118.864 78.3795 118.958 78.0705 119.047 77.7597C118.992 77.7454 118.939 77.7268 118.889 77.7044C118.611 77.5799 118.41 77.3366 118.333 77.0517M117.776 78.8743C117.747 78.7158 117.756 78.5479 117.81 78.384C117.909 78.0839 118.001 77.7816 118.087 77.4775C118.134 77.3114 118.22 77.1671 118.333 77.0517M118.333 77.0517C118.539 76.8406 118.834 76.7264 119.137 76.7534C119.192 76.7583 119.247 76.7677 119.301 76.782C119.376 76.4678 119.445 76.152 119.507 75.8348C119.451 75.8252 119.397 75.8111 119.346 75.7931C119.058 75.6922 118.837 75.4663 118.737 75.1886M118.333 77.0517C118.291 76.896 118.286 76.7279 118.326 76.56C118.4 76.2527 118.466 75.9437 118.527 75.6334C118.56 75.464 118.634 75.3129 118.737 75.1886M118.737 75.1886C118.925 74.9609 119.209 74.8226 119.514 74.8246C119.569 74.825 119.624 74.8298 119.679 74.8395C119.728 74.5201 119.77 74.1997 119.805 73.8784C119.749 73.8735 119.695 73.864 119.642 73.8504C119.347 73.7739 119.108 73.567 118.984 73.2984M118.737 75.1886C118.682 75.0369 118.663 74.8697 118.689 74.6991C118.737 74.3867 118.778 74.0733 118.812 73.7591C118.831 73.5875 118.892 73.4308 118.984 73.2984M118.984 73.2984C119.153 73.0557 119.425 72.8943 119.729 72.8712C119.784 72.8671 119.839 72.8674 119.895 72.8723C119.917 72.5501 119.932 72.2273 119.94 71.9042C119.884 71.904 119.829 71.899 119.775 71.8897C119.474 71.838 119.219 71.6519 119.074 71.3947M118.984 73.2984C118.917 73.1518 118.885 72.9868 118.896 72.8145C118.918 72.4994 118.933 72.1838 118.941 71.8679C118.945 71.6954 118.993 71.5343 119.074 71.3947M119.074 71.3947C119.222 71.139 119.479 70.9555 119.78 70.9069C119.834 70.8981 119.889 70.8938 119.946 70.8941C119.94 70.5712 119.928 70.2484 119.91 69.9257C119.853 69.9302 119.797 69.9299 119.742 69.9251C119.439 69.8985 119.169 69.7348 119.003 69.4911M119.074 71.3947C118.995 71.2542 118.949 71.0926 118.946 70.9201C118.941 70.6045 118.929 70.2888 118.911 69.9735C118.901 69.8014 118.935 69.6369 119.003 69.4911M119.003 69.4911C119.129 69.2242 119.369 69.0199 119.664 68.9457C119.718 68.9322 119.773 68.9231 119.83 68.9186C119.797 68.5975 119.758 68.2769 119.712 67.957C119.655 67.9665 119.598 67.971 119.542 67.9708C119.239 67.9696 118.957 67.8296 118.771 67.6016M119.003 69.4911C118.913 69.3579 118.853 69.2009 118.836 69.0294C118.804 68.7155 118.766 68.4022 118.72 68.0897C118.696 67.9192 118.716 67.7526 118.771 67.6016M118.771 67.6016C118.873 67.3256 119.094 67.1018 119.38 67.0021C119.433 66.9838 119.488 66.9696 119.545 66.9601C119.485 66.6433 119.418 66.3274 119.344 66.0128C119.287 66.0275 119.23 66.037 119.173 66.0416C118.872 66.0657 118.581 65.9509 118.376 65.7407M118.771 67.6016C118.67 67.4768 118.597 67.3257 118.565 67.1565C118.506 66.8468 118.441 66.5381 118.368 66.2307C118.329 66.0632 118.334 65.8958 118.376 65.7407M118.376 65.7407C118.453 65.4579 118.653 65.2163 118.928 65.0915C118.98 65.0679 119.035 65.0485 119.092 65.0338C119.004 64.7237 118.91 64.4151 118.808 64.1083C118.751 64.1286 118.693 64.1434 118.636 64.153C118.339 64.2021 118.04 64.1135 117.82 63.9231M118.376 65.7407C118.264 65.6254 118.179 65.4814 118.132 65.3159C118.047 65.0127 117.954 64.711 117.855 64.4112C117.801 64.2481 117.792 64.0811 117.82 63.9231M117.82 63.9231C117.871 63.636 118.046 63.3787 118.307 63.2295C118.358 63.2004 118.412 63.1754 118.469 63.1551C118.354 62.8544 118.233 62.5558 118.104 62.2593C118.05 62.2845 117.994 62.3043 117.938 62.319C117.647 62.3953 117.34 62.3342 117.103 62.1644M117.82 63.9231C117.698 63.8184 117.6 63.6828 117.539 63.5224C117.427 63.2285 117.308 62.9367 117.182 62.6471C117.114 62.4896 117.089 62.3242 117.103 62.1644M117.103 62.1644C117.128 61.8733 117.28 61.6008 117.527 61.4287C117.574 61.3955 117.626 61.3661 117.68 61.3409C117.539 61.052 117.39 60.7655 117.235 60.4817C117.184 60.511 117.132 60.5354 117.079 60.5549C116.795 60.6592 116.483 60.6268 116.23 60.4788M117.103 62.1644C116.972 62.0711 116.862 61.945 116.787 61.7908C116.649 61.5089 116.504 61.2293 116.353 60.9525C116.27 60.8018 116.231 60.6393 116.23 60.4788M116.23 60.4788C116.228 60.1855 116.356 59.8992 116.588 59.7053C116.631 59.6689 116.679 59.6357 116.729 59.6064C116.562 59.3317 116.388 59.0598 116.207 58.7909C116.161 58.8235 116.113 58.8516 116.064 58.8754C115.789 59.0081 115.473 59.0054 115.206 58.8806M116.23 60.4788C116.091 60.3979 115.97 60.2823 115.881 60.1357C115.718 59.8681 115.548 59.6033 115.372 59.3415C115.276 59.1989 115.221 59.0405 115.206 58.8806M115.206 58.8806C115.177 58.5868 115.28 58.2879 115.496 58.0733C115.535 58.0349 115.577 57.9991 115.623 57.9666C115.431 57.7084 115.233 57.4533 115.028 57.2016C114.987 57.2364 114.944 57.2673 114.9 57.2945C114.638 57.4554 114.32 57.483 114.04 57.3826M115.206 58.8806C115.06 58.8128 114.929 58.7087 114.826 58.5707C114.64 58.3197 114.447 58.0718 114.247 57.8271C114.139 57.6937 114.07 57.5406 114.04 57.3826M114.04 57.3826C113.984 57.0901 114.061 56.7804 114.261 56.5463C114.294 56.5069 114.332 56.4696 114.372 56.4349C114.158 56.1952 113.936 55.9589 113.709 55.7263C113.674 55.7625 113.636 55.7954 113.597 55.8251C113.349 56.013 113.032 56.0709 112.742 55.9956M114.04 57.3826C113.888 57.3283 113.748 57.2366 113.633 57.1082C113.425 56.8756 113.21 56.6463 112.989 56.4206C112.868 56.2973 112.786 56.1507 112.742 55.9956M112.742 55.9956C112.66 55.7067 112.71 55.3884 112.892 55.1363C112.921 55.0966 112.953 55.0585 112.988 55.0224C112.753 54.8029 112.511 54.5871 112.264 54.3752C112.233 54.4128 112.2 54.4475 112.165 54.4795C111.935 54.6911 111.622 54.7779 111.324 54.7281M112.742 55.9956C112.586 55.9551 112.437 55.8763 112.311 55.7585C112.083 55.5456 111.849 55.3362 111.608 55.1306C111.477 55.0182 111.382 54.8791 111.324 54.7281M111.324 54.7281C111.216 54.4459 111.24 54.1224 111.402 53.8545C111.426 53.8141 111.454 53.7749 111.484 53.7374C111.231 53.5394 110.972 53.3452 110.707 53.155C110.68 53.1955 110.649 53.2333 110.617 53.2684C110.405 53.4979 110.101 53.6103 109.801 53.5858M111.324 54.7281C111.165 54.7015 111.01 54.6357 110.873 54.5291C110.628 54.3368 110.376 54.1481 110.118 53.9632C109.978 53.8623 109.871 53.7316 109.801 53.5858M109.801 53.5858C109.67 53.3141 109.665 52.9903 109.803 52.7099C109.825 52.6671 109.849 52.6254 109.877 52.5849C109.609 52.4091 109.335 52.2371 109.055 52.0692C109.029 52.1153 108.999 52.1586 108.967 52.1988C108.774 52.439 108.483 52.5719 108.185 52.5713M109.801 53.5858C109.639 53.5726 109.479 53.5201 109.334 53.425C109.073 53.2534 108.806 53.0856 108.533 52.9218C108.384 52.8326 108.267 52.7109 108.185 52.5713M108.185 52.5713C108.132 52.4804 108.094 52.3818 108.071 52.2796C107.974 52.3129 107.872 52.3311 107.77 52.3337C107.61 52.3377 107.447 52.3033 107.298 52.2281M108.185 52.5713C108.023 52.571 107.859 52.5312 107.707 52.4479C107.618 52.3988 107.528 52.3501 107.437 52.3018C107.391 52.2771 107.344 52.2526 107.298 52.2281M107.298 52.2281C107.292 52.2254 107.287 52.2227 107.282 52.2199C107.259 52.208 107.237 52.1953 107.215 52.1818M107.298 52.2281C107.27 52.2141 107.242 52.1987 107.215 52.1818M107.215 52.1818C107.193 52.168 107.172 52.1531 107.15 52.1373C107.077 52.083 107.013 52.0206 106.959 51.9522C107.029 52.041 107.115 52.1192 107.215 52.1818Z" stroke="#EE8320" stroke-width="2" stroke-linecap="round" stroke-dasharray="1 1"/>
</svg>
