<svg width="120" height="121" viewBox="0 0 120 121" fill="none" xmlns="http://www.w3.org/2000/svg">
<path d="M38.7511 17.2534C44.22 -4.94578 75.78 -4.94578 81.2488 17.2534V17.2534V17.2534C102.059 7.57522 122.03 32.0648 108.362 50.502L107.746 51.334V51.334C128.256 62.0712 121.434 93.283 98.2891 93.8317V93.8317V93.8317C102.743 116.218 74.4201 130.438 60 112.745V112.745V112.745C45.5798 130.438 17.2574 116.218 21.7109 93.8317V93.8317V93.8317C-1.43378 93.283 -8.25645 62.0712 12.2542 51.334V51.334L11.6375 50.502C-2.02967 32.0648 17.9411 7.57522 38.7511 17.2534V17.2534V17.2534Z" fill="#EE8320"/>
</svg>
