<svg width="24" height="25" viewBox="0 0 24 25" fill="none" xmlns="http://www.w3.org/2000/svg">
<path d="M23.5 12.5C23.5 19.1469 18.3322 24.5 12 24.5C5.66777 24.5 0.5 19.1469 0.5 12.5C0.5 5.85315 5.66777 0.5 12 0.5C18.3322 0.5 23.5 5.85315 23.5 12.5Z" stroke="black"/>
<path d="M17.3867 7.76757C12.1968 6.023 6.88232 9.27587 4.87381 11.1204C4.29255 12.1461 4.86074 12.4029 5.21749 12.403C9.94762 7.63926 15.5303 8.18291 17.7303 9.05021C18.6871 8.49837 17.8999 7.96519 17.3867 7.76757Z" fill="black" stroke="black"/>
<path d="M17.3575 11.6982C12.8751 9.76404 8.48735 12.7686 6.85378 14.5126C6.40077 15.504 6.89414 15.7808 7.19746 15.7953C11.0278 11.2726 15.7959 12.0345 17.7012 12.9808C18.4925 12.4733 17.8018 11.9143 17.3575 11.6982Z" fill="black" stroke="black"/>
<path d="M17.4137 15.0567C13.9222 13.1683 10.5423 15.5828 9.28883 17.0261C8.94514 17.8682 9.32994 18.1317 9.56531 18.1581C12.5011 14.3969 16.2051 15.278 17.6902 16.1887C18.3 15.7832 17.76 15.265 17.4137 15.0567Z" fill="black" stroke="black"/>
<path d="M23.5 12.5C23.5 19.1469 18.3322 24.5 12 24.5C5.66777 24.5 0.5 19.1469 0.5 12.5C0.5 5.85315 5.66777 0.5 12 0.5C18.3322 0.5 23.5 5.85315 23.5 12.5Z" stroke="black"/>
<path d="M17.3867 7.76757C12.1968 6.023 6.88232 9.27587 4.87381 11.1204C4.29255 12.1461 4.86074 12.4029 5.21749 12.403C9.94762 7.63926 15.5303 8.18291 17.7303 9.05021C18.6871 8.49837 17.8999 7.96519 17.3867 7.76757Z" fill="black" stroke="black"/>
<path d="M17.3575 11.6982C12.8751 9.76404 8.48735 12.7686 6.85378 14.5126C6.40077 15.504 6.89414 15.7808 7.19746 15.7953C11.0278 11.2726 15.7959 12.0345 17.7012 12.9808C18.4925 12.4733 17.8018 11.9143 17.3575 11.6982Z" fill="black" stroke="black"/>
<path d="M17.4137 15.0567C13.9222 13.1683 10.5423 15.5828 9.28883 17.0261C8.94514 17.8682 9.32994 18.1317 9.56531 18.1581C12.5011 14.3969 16.2051 15.278 17.6902 16.1887C18.3 15.7832 17.76 15.265 17.4137 15.0567Z" fill="black" stroke="black"/>
</svg>
