<svg width="408" height="402" viewBox="0 0 408 402" fill="none" xmlns="http://www.w3.org/2000/svg">
<path d="M131.584 56.7168C150.577 -18.4832 257.423 -18.4832 276.416 56.7168V56.7168V56.7168C347.055 24.673 413.652 108.248 366.717 170.005V170.005V170.005C435.811 205.284 412.048 309.479 334.489 311.272V311.272V311.272C349.989 387.267 253.732 433.658 204 374.142V374.142V374.142C154.268 433.658 58.0109 387.267 73.5106 311.272V311.272V311.272C-4.04831 309.479 -27.8113 205.284 41.2824 170.005V170.005V170.005C-5.65166 108.248 60.945 24.673 131.584 56.7168V56.7168V56.7168Z" fill="#FF7F8A"/>
</svg>
